<?xml version="1.0" standalone="no"?>
<!DOCTYPE svg PUBLIC "-//W3C//DTD SVG 20010904//EN"
 "http://www.w3.org/TR/2001/REC-SVG-20010904/DTD/svg10.dtd">
<svg version="1.0" xmlns="http://www.w3.org/2000/svg"
 width="1920.000000pt" height="1920.000000pt" viewBox="0 0 1920.000000 1920.000000"
 preserveAspectRatio="xMidYMid meet">
<metadata>
Created by potrace 1.11, written by Peter Selinger 2001-2013
</metadata>
<g transform="translate(0.000000,1920.000000) scale(0.100000,-0.100000)"
fill="#000000" stroke="none">
<path d="M10569 11736 c-2 -2 -69 -7 -149 -10 -80 -4 -163 -9 -185 -11 -22 -2
-76 -6 -120 -10 -84 -6 -133 -11 -212 -21 -27 -3 -66 -7 -88 -9 -22 -3 -57 -7
-77 -10 -21 -3 -57 -8 -80 -11 -158 -20 -322 -48 -558 -94 -30 -6 -68 -13 -84
-16 -134 -24 -470 -113 -651 -172 -340 -113 -792 -300 -870 -361 -5 -5 -28
-12 -50 -15 -58 -10 -144 -38 -275 -89 -63 -25 -149 -54 -190 -66 -73 -20 -97
-24 -210 -36 -181 -18 -245 -26 -320 -40 -14 -3 -41 -7 -60 -10 -184 -28 -632
-158 -775 -225 -11 -5 -54 -24 -96 -43 -82 -37 -97 -50 -80 -71 9 -11 60 -13
249 -10 130 2 247 5 259 8 17 4 23 -1 28 -25 6 -25 14 -31 58 -44 100 -28 334
-15 455 26 l82 27 0 -24 c0 -33 21 -73 59 -108 39 -38 80 -37 167 4 36 16 68
30 71 30 3 0 105 49 227 109 368 181 433 208 599 242 81 17 123 20 207 16 126
-6 207 -29 457 -126 224 -87 304 -110 419 -118 l92 -6 -15 -36 c-26 -65 -30
-75 -68 -156 -21 -44 -53 -104 -72 -133 -18 -29 -34 -58 -36 -64 -1 -6 23 -19
53 -29 30 -10 49 -18 41 -18 -34 -2 -201 -205 -201 -244 0 -22 143 -30 202
-12 22 7 -241 -197 -345 -268 -26 -18 -37 -77 -22 -114 14 -32 56 -53 107 -53
27 0 23 -5 -49 -59 -43 -33 -85 -68 -94 -78 -108 -130 -138 -185 -139 -249 0
-47 31 -100 71 -123 24 -13 30 -12 80 13 30 16 70 38 89 49 l35 21 -23 -29
c-12 -17 -58 -68 -103 -115 -95 -99 -133 -170 -124 -227 3 -21 10 -42 15 -47
18 -18 63 -8 141 31 43 21 79 39 79 38 0 0 -16 -38 -35 -83 -37 -89 -50 -155
-40 -202 5 -24 12 -30 34 -30 34 0 135 39 208 80 l54 30 -26 -40 c-41 -65 -78
-152 -83 -197 -4 -38 -2 -43 27 -61 61 -37 159 -5 379 127 l54 31 -20 -27
c-62 -89 -98 -198 -82 -253 35 -122 149 -171 261 -114 28 14 90 39 137 56 48
16 99 36 113 43 23 12 28 11 55 -12 16 -13 44 -31 63 -39 50 -21 96 4 139 76
53 90 112 150 243 250 68 51 126 96 129 99 3 3 25 23 50 43 288 235 559 558
769 915 69 117 74 123 137 158 66 37 125 88 277 241 200 200 407 468 518 670
l33 61 48 0 c61 1 177 55 310 144 51 34 157 95 236 135 170 87 280 158 382
249 41 37 89 78 106 91 44 34 123 51 215 47 43 -2 79 -2 79 0 0 3 -30 23 -67
45 -38 23 -106 70 -153 107 -189 146 -348 264 -400 297 -122 78 -250 130 -425
175 -125 31 -120 30 -295 58 -23 3 -76 10 -155 20 -16 2 -75 7 -130 10 -55 4
-120 9 -145 12 -52 6 -915 14 -921 9z m896 -40 c28 -2 62 -5 77 -5 16 -1 27
-6 25 -13 -3 -15 106 -61 203 -86 60 -15 76 -24 78 -40 4 -26 31 -49 62 -54
22 -3 25 -9 28 -48 3 -50 4 -51 28 -54 12 -2 22 -21 34 -64 9 -34 17 -63 16
-65 -1 -1 6 6 14 17 8 11 36 41 62 67 100 102 282 117 455 37 77 -35 154 -89
174 -122 26 -42 24 -46 -17 -46 -31 0 -35 -3 -29 -20 4 -12 -3 -33 -19 -57
-31 -46 -33 -81 -5 -135 36 -71 35 -122 -4 -158 -30 -28 -91 -27 -111 2 -14
20 -17 21 -34 5 -26 -24 -77 -32 -112 -17 -32 13 -65 72 -55 98 4 10 -6 13
-43 11 -64 -2 -68 -1 -86 17 -14 13 -14 19 -1 50 l14 34 -31 -16 c-50 -26 -83
-12 -168 70 -43 41 -88 76 -101 78 -14 2 -53 40 -107 103 -46 55 -93 111 -105
125 -12 14 -42 49 -66 78 -24 29 -56 59 -72 68 -35 18 -80 11 -97 -14 -12 -18
-16 -17 -100 24 -182 91 -369 113 -597 70 -131 -24 -178 -28 -299 -21 -169 10
-362 5 -386 -10 -3 -2 -25 -6 -49 -10 -48 -7 -197 -58 -252 -86 -20 -10 -38
-16 -40 -14 -3 3 -132 10 -344 20 -60 2 -126 -20 -157 -54 -27 -30 -28 -30
-62 -16 -91 38 -193 0 -227 -85 -6 -14 -28 -34 -52 -45 -32 -15 -48 -32 -67
-70 -14 -27 -25 -51 -26 -53 0 -1 -26 7 -57 17 -43 15 -64 17 -90 10 -60 -16
-107 -83 -107 -153 0 -32 -2 -34 -46 -39 -78 -8 -134 -68 -137 -147 l-2 -40
-82 1 c-89 1 -131 -14 -154 -57 -6 -13 -16 -21 -20 -18 -11 6 -262 7 -309 0
-19 -3 -57 -8 -85 -11 -68 -9 -178 -36 -310 -76 -132 -39 -259 -47 -279 -16
-16 24 10 67 54 90 l35 18 -60 -7 c-92 -11 -154 -7 -182 11 -13 9 -23 19 -20
21 3 3 29 12 58 20 30 8 59 16 64 18 6 2 35 15 67 29 74 34 289 107 315 107
11 0 53 18 93 40 181 100 660 291 905 361 196 57 253 72 410 108 94 22 184 42
200 45 17 3 41 8 55 11 22 4 142 26 220 39 73 13 282 46 325 51 28 4 61 8 75
10 14 2 75 9 135 15 61 6 120 13 133 15 13 2 65 7 115 10 51 4 108 9 127 10
19 2 96 7 170 10 74 4 137 9 139 11 5 4 836 -5 896 -10z m265 -21 c360 -29
692 -120 882 -242 67 -43 238 -167 238 -173 0 -3 -17 -12 -39 -21 l-38 -16
-12 33 c-28 76 -203 182 -346 209 -134 25 -285 -18 -361 -102 l-22 -23 -11 45
c-9 34 -16 45 -31 45 -20 0 -25 19 -20 78 1 19 -3 22 -38 22 -45 0 -65 26 -37
46 20 15 12 20 -45 29 -49 8 -212 59 -238 75 -13 7 -8 9 18 5 19 -2 64 -7 100
-10z m-538 -74 c78 -20 190 -69 264 -115 l41 -26 -5 29 c-3 22 1 32 18 41 37
20 55 3 239 -219 119 -144 135 -161 157 -161 15 0 49 -26 98 -75 60 -60 83
-76 114 -81 29 -4 43 -13 51 -31 13 -28 65 -53 103 -49 22 3 28 -3 41 -35 26
-66 99 -95 176 -68 21 8 35 8 44 1 41 -34 125 -13 157 40 27 44 25 92 -5 156
-14 30 -25 64 -24 75 0 15 5 9 15 -18 20 -54 35 -72 75 -88 35 -15 49 -15 137
-3 l54 7 -38 -33 c-21 -18 -52 -46 -69 -62 -35 -34 -154 -122 -207 -155 -75
-45 -232 -120 -238 -113 -3 4 -18 8 -35 10 -61 6 -94 28 -100 67 0 6 7 30 17
54 23 55 16 64 -14 17 -29 -45 -76 -68 -120 -61 -47 8 -60 30 -53 86 l7 47
-39 -11 c-21 -5 -55 -7 -76 -3 -61 11 -127 81 -127 136 0 16 -5 19 -24 16 -13
-2 -35 -10 -48 -17 -12 -6 -20 -9 -17 -5 9 10 -35 121 -65 166 -62 94 -132
137 -330 202 -179 59 -369 119 -386 123 -8 2 -33 8 -55 13 -74 19 -143 24
-352 24 -222 1 -358 -7 -463 -28 -14 -2 -34 -6 -45 -8 -22 -4 -88 -23 -200
-56 -66 -19 -93 -20 -175 -5 -14 3 -41 7 -60 10 -19 3 -43 8 -53 11 -33 10
-151 7 -197 -6 -25 -7 -57 -21 -72 -31 -22 -16 -25 -24 -18 -48 l8 -28 -61 25
c-33 13 -86 27 -118 29 -54 5 -58 4 -93 -28 -26 -24 -37 -44 -38 -68 -2 -25
-8 -35 -28 -43 -29 -11 -40 -25 -40 -54 0 -13 -12 -26 -34 -37 -27 -12 -38
-26 -47 -57 -10 -32 -17 -40 -33 -39 -57 7 -121 -43 -137 -107 -9 -33 -17 -44
-37 -49 -42 -10 -80 -53 -93 -106 -12 -46 -15 -49 -45 -49 -75 0 -122 -52
-115 -127 2 -23 31 -1 31 24 0 30 42 73 72 73 13 0 33 -7 45 -15 21 -15 22
-14 29 32 14 100 63 154 119 133 24 -9 30 -6 25 15 -5 23 0 77 10 95 17 31 68
53 112 47 31 -4 38 -2 39 11 3 64 34 108 70 97 15 -5 18 1 21 37 2 31 8 44 21
46 11 2 17 -3 17 -15 0 -11 13 -40 30 -66 21 -33 25 -47 15 -47 -7 0 -30 -15
-49 -34 -48 -45 -50 -91 -6 -109 l30 -13 -34 -32 c-58 -55 -72 -158 -31 -231
l25 -43 -26 -31 c-22 -26 -25 -38 -21 -75 5 -44 42 -96 77 -107 11 -3 17 -17
18 -36 1 -55 47 -102 107 -112 17 -3 49 -8 72 -12 25 -4 55 -3 74 4 l33 11
-42 -38 c-44 -41 -112 -122 -112 -134 0 -5 15 -6 33 -3 102 16 170 23 241 24
44 1 85 5 90 8 8 4 8 2 1 -5 -14 -15 -267 -97 -347 -113 -77 -14 -84 -26 -47
-85 26 -43 75 -72 132 -80 l46 -7 -59 -43 c-32 -25 -76 -65 -97 -90 -45 -54
-102 -136 -103 -147 0 -4 79 -6 175 -4 96 2 173 2 172 0 -2 -1 -79 -31 -173
-66 -186 -70 -236 -97 -282 -152 -33 -41 -41 -67 -32 -105 5 -20 16 -28 55
-38 55 -14 234 -20 305 -9 36 5 3 -14 -165 -97 -223 -110 -265 -141 -290 -212
-21 -63 -1 -145 41 -161 9 -3 59 9 112 27 53 18 104 35 112 38 8 2 -4 -9 -28
-26 -92 -63 -193 -175 -238 -264 -15 -29 -43 -61 -72 -83 -62 -45 -219 -123
-257 -127 -28 -3 -30 -1 -31 32 -1 54 13 96 71 212 43 85 50 108 39 112 -9 3
-27 -5 -42 -20 -15 -13 -62 -43 -106 -64 -75 -38 -114 -49 -117 -32 -12 66 15
119 116 224 39 40 85 91 103 113 18 22 39 47 48 57 13 14 13 20 2 40 -7 12
-17 26 -23 30 -12 9 -27 -1 -22 -15 5 -15 -23 -37 -105 -84 -83 -48 -105 -45
-136 14 -45 83 54 234 248 378 89 67 125 104 112 117 -8 8 -22 5 -49 -8 -44
-21 -114 -24 -137 -5 -9 8 -16 28 -16 46 0 29 8 39 73 87 303 226 412 312 416
325 3 18 3 18 -106 -22 -77 -27 -140 -37 -179 -26 l-24 6 28 41 c57 87 121
145 224 207 38 23 54 38 48 46 -6 10 -15 9 -41 -5 -33 -17 -131 -25 -144 -12
-4 3 11 37 34 75 49 82 150 312 151 343 0 3 -35 4 -79 3 -113 -2 -221 25 -458
116 -289 111 -373 132 -518 132 -193 -1 -344 -51 -728 -240 -410 -203 -435
-211 -485 -161 -18 17 -35 43 -38 56 -6 25 12 58 27 48 5 -3 37 7 71 21 372
154 418 167 551 155 59 -5 79 2 58 23 -9 9 13 19 86 39 292 84 395 100 606 97
l138 -2 33 37 34 36 90 0 c101 0 110 5 110 62 0 80 62 134 142 125 l49 -6 -6
34 c-14 85 35 165 100 165 19 0 50 -7 69 -15 20 -8 47 -16 62 -19 23 -4 26 -1
26 23 0 16 10 43 23 62 20 29 39 43 95 68 8 3 13 9 13 14 -3 19 33 70 62 87
43 27 94 25 151 -4 l48 -24 10 28 c16 46 71 73 148 73 63 0 346 -16 352 -19 3
-2 35 9 70 25 86 40 146 59 258 81 81 16 129 19 335 15 217 -4 252 -2 365 18
156 29 300 28 412 -2z m-267 -176 c127 -31 530 -163 590 -193 114 -56 173
-130 215 -270 57 -187 20 -249 -237 -402 -175 -104 -320 -156 -470 -167 -60
-4 -87 -2 -98 7 -10 8 -51 14 -106 16 -131 4 -183 26 -158 65 18 29 8 34 -63
36 -64 2 -74 5 -95 29 -16 19 -34 28 -58 29 -48 3 -52 10 -16 25 17 6 37 23
46 36 l16 24 -65 -6 c-69 -7 -207 16 -257 42 -30 15 -47 50 -31 66 6 6 28 9
50 6 30 -2 38 0 31 8 -16 19 -58 31 -169 48 -58 9 -122 19 -143 22 -45 7 -67
27 -67 61 0 18 8 28 30 36 40 15 46 35 12 43 -69 17 -176 93 -166 119 8 20 51
24 102 9 69 -21 69 -13 -2 30 -74 45 -94 73 -77 104 8 16 25 23 62 28 50 7 89
37 89 70 0 8 10 15 23 16 12 0 27 2 32 3 6 2 55 3 111 4 82 1 101 4 101 16 0
12 -14 15 -65 15 -98 0 -82 7 68 29 121 18 123 18 405 18 246 1 278 -1 360
-22z m-1305 -60 c62 -13 149 -25 188 -25 23 0 42 -4 42 -10 0 -9 -62 -30 -91
-30 -8 0 -26 -11 -39 -25 -18 -19 -21 -31 -16 -56 3 -18 13 -40 21 -49 14 -15
13 -18 -9 -28 -14 -6 -30 -20 -36 -32 -10 -18 -6 -26 31 -61 23 -22 59 -49 80
-60 38 -19 48 -33 30 -43 -17 -11 -18 -56 -1 -84 18 -30 60 -47 140 -57 25 -3
67 -9 95 -13 l50 -7 -3 -36 c-6 -66 70 -107 233 -125 28 -3 50 -7 51 -7 1 -1
-5 -17 -12 -34 -14 -33 -14 -33 -77 -29 -34 2 -87 0 -117 -5 -30 -5 -71 -11
-90 -14 -277 -42 -518 -123 -688 -231 -29 -19 -62 -34 -75 -34 -12 0 -35 -7
-51 -15 -17 -9 -43 -14 -60 -11 -17 3 -50 8 -73 12 -54 8 -95 45 -91 81 2 19
10 27 26 30 13 2 47 14 75 28 l52 25 -45 -4 c-25 -2 -69 -7 -97 -11 -50 -7
-54 -6 -83 25 -18 19 -30 43 -30 59 0 37 35 73 68 71 15 -1 41 -1 57 0 l30 1
-35 16 c-19 9 -45 21 -58 26 -38 18 -64 83 -56 143 8 67 36 101 102 123 41 14
64 16 108 9 75 -11 85 -7 42 20 -27 17 -50 21 -104 21 -76 -1 -124 13 -124 35
0 8 16 28 37 46 38 34 57 36 158 16 17 -4 44 -9 60 -12 l30 -5 -25 13 c-14 8
-36 22 -50 31 -14 9 -43 18 -65 21 -65 8 -134 104 -91 128 19 10 22 39 4 36
-24 -5 -20 41 6 67 29 29 50 31 131 9 57 -14 85 -28 179 -85 l40 -23 -31 45
c-57 82 -54 106 17 128 34 10 188 8 240 -4z m3364 -209 c48 -35 103 -75 122
-88 18 -12 34 -25 34 -28 0 -3 -15 -6 -33 -6 -17 -1 -84 -9 -147 -19 -185 -28
-230 -19 -249 52 -14 49 -14 53 3 53 8 0 36 23 64 50 71 71 93 69 206 -14z
m-249 14 c-20 -22 -31 -20 -22 5 4 8 14 15 23 15 16 0 16 -2 -1 -20z m-890
-283 c35 -61 95 -97 162 -97 39 0 43 -2 43 -25 0 -66 57 -104 134 -90 29 6 36
3 54 -23 19 -27 38 -37 96 -56 14 -5 -8 -24 -100 -82 -172 -110 -227 -136
-304 -142 -36 -3 -67 -8 -70 -12 -3 -5 -5 67 -5 158 0 163 -1 168 -28 224 -16
31 -34 83 -41 116 -11 52 -10 61 3 70 23 16 23 16 56 -41z m-4915 -106 c0 -4
-26 -11 -57 -15 -61 -7 -226 -40 -378 -76 -49 -12 -97 -23 -105 -25 -8 -2 -71
-17 -140 -33 -157 -38 -244 -56 -375 -77 -16 -2 -55 -7 -85 -10 l-55 -5 55 21
c217 81 591 171 805 194 28 3 64 7 80 10 17 2 66 7 110 11 44 3 82 8 84 10 8
8 61 4 61 -5z m4894 -276 c0 -97 3 -173 9 -176 23 -15 -167 -298 -329 -489
-87 -103 -105 -122 -224 -230 -51 -47 -109 -100 -129 -119 -91 -85 -227 -168
-256 -157 -13 5 -14 22 -9 113 3 60 8 111 11 116 2 4 2 7 -1 7 -3 0 -17 -20
-32 -45 -26 -45 -66 -75 -100 -75 -15 0 -16 9 -11 78 4 42 13 102 21 132 l14
55 -19 -25 c-79 -103 -100 -118 -113 -84 -17 45 4 194 44 303 l21 56 -42 -43
c-23 -24 -53 -48 -66 -53 -27 -10 -83 -12 -83 -3 0 3 18 52 40 108 22 56 39
115 38 130 -2 24 -4 26 -13 11 -28 -46 -33 -50 -52 -39 -19 12 -22 72 -14 322
l2 93 44 -3 c40 -3 44 -6 54 -38 13 -44 44 -57 154 -65 44 -3 87 -10 97 -15
35 -19 228 -4 325 24 219 65 540 267 562 354 6 24 7 23 32 -24 25 -47 26 -54
25 -219z m-4768 221 l51 -1 -5 -41 c-4 -35 -1 -44 19 -58 l23 -16 -24 0 c-43
0 -119 -26 -295 -99 -93 -39 -173 -71 -178 -71 -5 0 -3 7 4 17 13 15 10 16
-36 10 -27 -3 -111 -24 -185 -46 -74 -23 -142 -41 -151 -41 -16 0 -46 27 -38
34 4 3 126 60 284 131 59 26 168 60 363 111 90 24 142 43 142 51 0 7 -6 13
-12 13 -18 0 -267 -66 -368 -96 -102 -32 -407 -168 -434 -194 -18 -18 -18 -20
-2 -44 l16 -26 -65 0 c-91 0 -155 17 -155 41 0 11 5 18 11 16 6 -1 18 9 27 22
l16 24 -34 -6 c-92 -17 -530 -31 -530 -17 0 14 184 84 188 72 5 -16 199 7 387
48 87 19 141 31 435 100 74 18 144 34 155 36 11 2 54 11 95 19 84 17 149 28
168 28 6 0 12 4 12 9 0 5 15 1 32 -8 18 -9 56 -17 84 -18z m3241 -207 c7 -7
23 -7 54 1 37 9 52 8 94 -9 l50 -19 -3 -192 c-4 -206 2 -243 43 -257 l23 -8
-35 -94 c-29 -76 -33 -95 -22 -102 20 -12 96 -11 120 2 19 10 20 8 14 -23 -12
-69 -17 -177 -11 -222 8 -51 20 -57 70 -31 33 18 39 19 31 5 -7 -12 -9 -140
-1 -147 11 -11 64 -4 95 12 l31 16 0 -70 c0 -76 6 -84 62 -77 15 2 26 0 24 -3
-147 -273 -347 -542 -571 -766 -153 -153 -220 -211 -435 -377 -47 -36 -114
-95 -149 -131 -62 -64 -122 -100 -189 -113 -26 -5 -29 -3 -28 18 1 12 6 30 11
38 5 8 16 26 24 40 15 24 15 24 -2 11 -16 -12 -17 -12 -10 5 18 50 88 125 136
145 28 12 34 23 17 34 -20 12 -107 -49 -236 -165 -67 -60 -115 -83 -186 -88
-86 -6 -139 15 -162 63 -20 41 -20 63 -1 108 25 60 73 105 158 148 44 22 106
60 136 84 58 44 130 115 118 115 -4 0 -44 -18 -89 -39 -71 -34 -111 -60 -251
-161 -12 -8 -18 -10 -15 -5 4 6 3 16 -1 23 -5 8 -23 2 -61 -23 -30 -19 -68
-38 -86 -41 -48 -9 -152 -9 -221 -1 -56 7 -63 10 -63 30 0 45 29 128 57 164
16 21 40 56 53 78 l24 40 -24 -20 c-36 -30 55 78 95 114 91 79 258 165 443
226 106 35 124 46 103 60 -5 3 -157 -44 -338 -104 -315 -105 -329 -109 -346
-92 -22 21 -25 87 -7 122 7 13 26 36 41 51 24 24 398 214 579 295 89 40 160
77 160 85 0 18 -24 16 -67 -5 -75 -38 -181 -73 -260 -87 -112 -18 -267 -16
-345 6 -24 7 -23 49 2 84 35 50 107 84 440 209 179 67 329 126 334 131 21 20
-27 21 -86 1 -58 -19 -149 -40 -238 -55 -74 -13 -300 -19 -300 -8 0 14 68 98
116 143 44 42 128 96 192 123 23 11 42 25 42 33 0 16 -5 16 -50 3 -110 -32
-190 -20 -240 36 -17 20 -30 37 -28 39 2 1 53 15 113 30 105 26 235 74 355
129 l55 25 -50 2 c-129 4 -326 -5 -367 -17 -34 -10 -17 15 53 80 50 46 79 66
98 66 14 0 46 14 71 30 25 17 68 39 95 49 112 43 108 41 96 55 -12 14 10 24
124 60 94 29 306 71 420 83 28 3 52 7 54 9 9 8 37 4 48 -7z m-1545 -2253 l-4
-55 43 -11 c23 -7 84 -12 135 -13 l93 -2 -52 -33 c-98 -63 -219 -115 -274
-120 -48 -4 -52 -3 -58 20 -8 31 22 110 76 199 22 38 42 69 43 69 1 0 0 -24
-2 -54z m391 -97 c-36 -54 -42 -131 -14 -176 29 -46 93 -76 161 -76 76 0 127
17 184 61 92 70 86 67 73 30 -26 -73 -60 -98 -199 -147 -47 -16 -109 -41 -137
-55 -62 -32 -108 -33 -151 -3 -46 30 -72 79 -72 130 1 78 121 277 167 277 12
0 10 -9 -12 -41z m546 -277 c-19 -31 -61 -51 -85 -42 -37 14 -36 28 3 35 21 3
49 12 63 20 30 16 35 13 19 -13z"/>
<path d="M12389 11324 c-89 -20 -131 -91 -125 -210 3 -62 25 -94 64 -94 14 0
30 -7 36 -15 18 -25 77 -26 110 -1 17 11 48 30 70 41 23 11 47 31 54 45 26 51
-14 182 -67 219 -35 25 -78 29 -142 15z m16 -39 c-54 -28 -75 -63 -75 -127 0
-50 4 -61 27 -83 l28 -25 -38 0 c-30 0 -39 5 -46 23 -12 31 -3 125 15 163 15
31 63 62 99 63 15 1 13 -3 -10 -14z m114 -31 c41 -29 59 -106 35 -146 -11 -18
-99 -35 -134 -25 -51 13 -60 24 -60 74 0 86 93 143 159 97z m-59 -224 c-25
-19 -40 -18 -40 3 0 7 14 13 32 14 l32 1 -24 -18z"/>
</g>
</svg>
