<?xml version="1.0" encoding="utf-8"?>
<!-- Generator: Adobe Illustrator 25.2.0, SVG Export Plug-In . SVG Version: 6.00 Build 0)  -->
<svg version="1.1" id="Layer_1" xmlns="http://www.w3.org/2000/svg" xmlns:xlink="http://www.w3.org/1999/xlink" x="0px" y="0px"
	 viewBox="0 0 1920 1080" style="enable-background:new 0 0 1920 1080;" xml:space="preserve">
<style type="text/css">
	.st0{display:none;}
	.st1{display:inline;}
	.st2{fill:none;stroke:#0A0A0A;stroke-width:0.9953;stroke-miterlimit:10;}
</style>
<g id="Layer_4" class="st0">
	<g id="RC2ZUA_1_" class="st1">
		
			<image style="overflow:visible;enable-background:new    ;" width="1600" height="1700" id="RC2ZUA" xlink:href="C4E9162607F7C9A4.jpeg"  transform="matrix(-0.48 0 0 0.48 944.6223 202.739)">
		</image>
	</g>
</g>
<g id="Layer_2_1_">
	<path class="st2" d="M805.4,439.7c-15.7,2.1-28.1,12-46.7,13.4c-32,2.4-64.7,10.7-93.8,24.3c-0.6,0.3-0.6,1.5,0.3,1.5
		c12.2-0.3,28.6,0.5,39.7-1.5c-1.5,2.6-3.8-2.8-2.6,4.6c15,6.6,27.7-3.2,44.1-5.5c-1.5,3-7.1,5.5,1.6,13.2c2.5,2.2,6.6-0.4,9.7-1.7
		c27.6-10.9,52.1-31.1,81.5-27.1c20.2,2.7,43.2,19.6,63.3,16.5c-3.3,10-7.8,19.6-13.6,28.5c4.6,2.5,10.8,1.9,14.9-1.4
		c-10.3,5.6-16.8,10.7-22.1,21.2c6.8,2.5,14.9-0.2,22.8-4.1c-13.2,9.2-20.9,16.2-34.1,25.3c-4.4,10.7,8.4,10.4,14.2,5.6
		c-8.4,9.9-13.8,7.5-25.1,25.1c-1.7,2.6-2,7-0.6,9.7c1.7,3.3,4.4,5.5,7.5,3.3c3.2-2.2,10.2-4.8,11.8-8.4c-1.4-1.6,0,0,0.5,2.1
		c0.5,2.1,1.1-1.9,0,0c-5.4,9.8-19.6,18.3-19,26.4c0.3,4.4,1.1,4.8,5.2,3.3c4.2-1.4,12-5.5,14.6-9.1c-4.7,8.8-10.7,18.2-8.3,26.4
		c5.4,0,23.1-8.6,28.1-16.2c-6,5.7-14.6,18.4-15.8,26.5c2.1,12.1,31.4-9.7,41.5-15.2c-7.4,2.4-19.2,20.4-16.4,27.6
		c2.9,7.2,9.6,10.8,16.2,6.7c7.8-4.8,19.3-5.3,23.4-12c-2.4,2.2-1.5,1.7-2.2,4.9c3.5,2.8,7,5.9,10.4,2.9c3.4-3,2.9-4.6,5.6-8.2
		c4.9-6.7,11.9-11.5,18.5-16.5c27.6-20.9,50.4-48,66.4-78.9c4.6-1.7,8.9-4.3,12.5-7.7c19.6-18.1,37.4-38.6,49.7-62.3
		c10.1,3.3,26.9-12.4,36.6-16.7c40.2-18,30.8-31,55.3-28.9c-18.1-10.7-34.6-29.3-54.7-36.7c-20.1-7.4-41.7-9.8-63-11
		c-53.1-3.2-106.7,0.1-159,9.9c-24,4.5-47.8,10.4-70.7,19C836.9,424.8,820.6,430.8,805.4,439.7z"/>
	<path class="st2" d="M1141.1,426.6c0.3-5.2,6.6-9.1,11.5-7.1c4.8,1.9,6.8,9,3.5,13.2c-4.6,2-10.1,3.5-14.6-1.1c0-2.5,0-2.5-0.1-5"
		/>
	<path class="st2" d="M1079,528.9c-8.8,7-17.7,14-26.5,21c-3.9,3.1-8.8,6.4-13.6,4.8c0.3-4.3,0.5-8.5,0.8-12.8
		c-1.7,3.5-5.8,5.7-9.7,5.2c-0.3-4.7,0.1-9.3,1.2-14c-1.6,2.5-4.4,4.4-7.4,4.9c-1.2-7.7-0.5-15.6,2.4-22.9c-2.8,3.3-7.8,4.6-11.9,3
		c2-5.3,4.1-10.7,6.1-16c0.3,2.1-2.5,2.6-3.9,1.9c-2.3-1.1-2.3-4.6-2.4-6.7c-0.3-5.1,0.6-10.2,0.8-15.4c0.1-3.3,0.6-7.7-1.4-10.7
		c-3.7-5.5-9.1,0.7-13.1,0c-0.3,0-0.4-1.1-0.8-1.2c-0.9-0.2-2,0.1-2.9,0.2c-4,0.5-8,1.1-12,1.7c-8,1.3-15.9,2.9-23.6,5.3
		c-14.7,4.6-28.9,12.1-38.3,24.8c-0.2,0.3-0.3,0.5-0.6,0.8c9.6-1.5,19.2-2.2,28.9-1.9c-10.6,5.1-21.8,8.7-33.3,10.8
		c0.5,4.6,5,7.9,9.7,8.6c4.6,0.6,9.2-0.8,13.6-2.1c-11.2,3.7-20.9,11.8-26.7,22.1c15.4,1.1,31.1-1.1,45.6-6.4
		c-14.5,5.5-29.1,10.9-43.6,16.4c-6.6,2.5-14.6,8-12,14.4c16.2,3.8,33.7,1.2,48.1-7.2c-14.3,6.9-28.6,13.8-42.9,20.8
		c-4.2,2-8.6,4.2-11.1,8.2c-2.5,3.9-2.2,10,1.8,12.3c15.6-5.2,31.2-10.4,46.7-15.6c-12.1,3.9-24.5,8-34.9,15.5
		c-10.4,7.5-18.4,19.2-18.4,32c18.2,4.5,38.6-1.2,51.8-14.5c-7.7,3.3-14.7,8-20.7,13.8c-3.6,3.5-7.1,8.2-6.1,13.1
		c1.5,8.6,14.3,9.7,21.7,5c7.4-4.7,12.9-12.5,21-15.6c-8.6,3-14.4,12.3-13.5,21.4c5.7-0.8,11.2-3.2,15.6-6.9"/>
	<path class="st2" d="M955,482c-3.6,2.3-10.4,3-14,6.6c-3,3-7.1,0.2-11.9,2.8c-2.8,1.9-6.1,0-9.6-0.2c-3.5-0.2-6.9-2.8-7.1-6.1
		c-0.3-3.5,2.2-4.4,6.9-4.8c-3,1.6-6.8,1.8-9.7,0.1c-2.9-1.7-4.7-5.4-3.6-8.6c1.1-3.2,5.2-5.1,8.2-3.5c-2.8,0.3-5.4-1.7-6.6-4.2
		c-1.2-2.5-2.4-3.9-1.9-6.6c0.8-3.7,0.8-6.9,4-9.1c3.2-2.2,10.9-4.7,13.9-2.3c-7.7-1.2-20.4,0.4-14.3-7.5c3.5-3.7,9.6-4.6,13.8-1.9
		c-4.1-0.7-8.8-1.8-11-5.4c-2.9-4.7-2.9-13.5,2.3-15.4c5.2-1.8,14.6,2.4,19.1,5.5c-1.4-1.9-2.2-4.2-2.5-6.6c5.1-4.1,12.4-4.1,19-3
		c4.6,0.8,9.1,1.9,13.7,2.2c1.9,0,4.1,0.2,5.9-0.4c0.7-0.3,1.4-0.6,2.2-1c1.5-0.6,3-1.1,4.6-1.6c3-1,6.2-1.7,9.3-2.4
		c6.3-1.2,12.9-1.8,19.3-2.1c6.2-0.3,12.4-0.2,18.6-0.1c5.6,0,11.3,0,16.8,1.1c4.6,0.8,9.1,2.2,13.5,3.6c6.9,2.2,13.7,4.4,20.5,6.6
		c6.4,2.1,13.2,4.3,18,9.1c4.1,4.1,6.5,9.5,8,15c0.8,2.8,1.3,5.7,1.8,8.6c0.3,2.1,0.8,3.7,1.9,5.5c1.1,1.8,2,3.6,2.4,5.8
		c0.6,2.9,0.5,5.9,0.4,8.8c-0.1,4.8-0.3,9.6-0.5,14.3"/>
	<path class="st2" d="M902.5,477.4"/>
	<path class="st2" d="M1101.2,452.1c0,5.2-4.6,9.1-8.8,12.1c-14.8,10.4-32.2,19.3-50.1,17.6c-1.2-0.1-2.6-0.3-3.5-1.3
		c1.3,0,2.7-0.1,4-0.1c-4.6,0.2-9.2,0-13.8-0.6c-1.9-0.2-3.9-0.6-5.1-2.1c-1.2-1.4-0.6-4.4,1.4-4.4c-5.1,0.3-10.4-0.2-15.4-1.7
		c-2.2-0.6-4.8-2.5-3.8-4.6c0.9-1.8,4-1.6,4.9-3.5c-5.8,1.1-11.8,0-17.4-1.4c-2.5-0.7-5.4-1.8-6.4-4.2c-1.1-2.4,1.8-6,4-4.4
		c-6.2-1-12.4-2-18.6-3c-1.4-0.2-2.8-0.5-4-1.3c-1.7-1.2-2.3-3.6-1.4-5.5c0.9-1.9,3.2-2.9,5.2-2.4c-5.8-1.1-11.1-4.4-14.9-8.9
		c1.2-2.6,4.4-4.1,7.2-3.2c-1.6-1-3.2-1.9-4.3-3.4c-1.1-1.4-1.4-3.6-0.3-5.1c1.3-1.7,3.9-1.8,6-2.2c2.1-0.4,4.7-1.9,4.3-4
		c-0.8,0.3-1.9,0-2.4-0.8c6.3-2.1,15-1.3,21.7-1.7"/>
	<path class="st2" d="M779.4,448.8c-3.8,1.1-7.7,2.1-11.5,3.1c-0.6,1.4,0.9,2.8,2.3,3.5c4,2,8.9,2.1,13,0.2c-2.1,0-4.4,5.9-3,7.5
		c1.4,1.6,3.6,1.9,5.8,1.9c7.7-0.1,15.1-3,22.6-5.2c13.7-3.9,28.1-5.1,42.3-3.6"/>
	<path class="st2" d="M793.7,467c-6.1-0.5-12.4-1-18.3,0.7c-1.9,0.6-3.6,1.3-5.5,2c-7.3,3-14.7,6.1-22,9.1c-5.2-0.4-10.1,2.1-15,3.6
		c-5,1.4-11,1.9-14.6-1.8c-0.1-0.1-0.3-0.3-0.4-0.6c-0.3-0.8,0.7-1.5,1.4-1.9c5-2.4,10.2-4.7,15.3-7.1c2.8-1.2,5.5-2.5,8.3-3.6
		c4.2-1.6,8.6-2.8,13-3.9c6-1.5,11.9-3.1,17.9-4.6"/>
	<path class="st2" d="M767.9,455.3c-29.2,3.6-57.3,14.9-86.7,16.7"/>
	<path class="st2" d="M868.3,468c-0.7-2.5,0.3-5.4,2.5-6.9c2.2-1.5,5.2-1.5,7.3,0c0.4-3,0.8-6.1,2.5-8.6c1.7-2.5,5-4.2,7.7-3
		c-0.9-3,0-6.5,2.3-8.7c2.3-2.2,5.9-2.9,8.8-1.8c0-1.9,0.2-3.9,1.2-5.6c1.1-1.7,3.1-2.8,4.9-2c-0.1-1.5-0.3-3.1,0.3-4.6
		s6.2-2.6,7.7-2.3"/>
	<path class="st2" d="M851,456.4c0-3.2,3.4-5.3,6.6-5.6c3.2-0.3,6.3,0.6,9.5,0c0.3,0,0.7-0.1,0.9-0.3c0.3-0.3,0.2-1,0.1-1.4
		c-0.6-3.3,0.8-6.9,3.4-9.1c2.5-2.2,6.3-2.8,9.6-1.7c-0.5-3.1-0.3-6.3,1.1-9.1c1.4-2.8,4.4-4.9,7.5-4.7c3.3,0.2,6,2.8,9.2,2.6
		c-0.3-5.1,4-10,9.1-10.3c0-3.9,3.3-7.4,7.1-8.4s8,0.2,11.2,2.5c0.7-2.9,3.4-5,6.2-5.9c2.8-0.8,5.9-0.7,8.9-0.6
		c7.3,0.4,14.6,0.8,22,1.2c13.7-7.7,30.7-9.7,46.3-8.4c2.5,0.2,4.9,0.6,7.4,0.6c8.3,0.3,16.4-2.4,24.7-3.2
		c13.7-1.4,27.8,2.2,39.3,10c-0.7-2.4,2.2-4.5,4.6-4c2.4,0.5,4.2,2.5,5.8,4.4c6.1,7.3,12.3,14.7,18.4,22c4.2,0.1,6.9,3.5,9.6,6.7
		c2.7,3.2,7.1,6.2,10.8,4.1c-1.1,2,0.4,4.6,2.5,5.4c2.2,0.8,4.5,0.3,6.7,0c-0.2,3.3,1.8,6.5,4.8,7.8c3,1.3,6.7,0.6,9-1.8
		c1.9,3.1,6.8,3.5,9.6,1.2c2.8-2.4,3.5-6.6,2.2-9.9c-1.2-2.9-3.7-5.9-2.5-8.8c1.1-2.5,4.8-4.8,3-7c1.5,0,3-0.2,4.4-0.3
		c0-4.4-3.9-7.7-7.6-10c-6.9-4.2-14.6-7.4-22.8-7.2c-8.1,0.1-16.4,4-20.3,11c-0.6-2.6-1.2-5.2-1.8-7.8c-1.1,0-2-0.1-3-0.2
		c0-2.4-0.1-4.6-0.2-7c-1.6,0.3-3.4,0.3-4.8-0.6c-1.4-0.9-1.7-3.3-0.3-4.1c-7.4-1.2-14.6-3.6-21.5-6.9"/>
	<path class="st2" d="M1101.5,443.7c1-1.4,2.7-2.3,4.4-2.3c0.4,3.7,2.5,7.2,5.8,9.2c3.2,2,7.3,2.4,10.8,1c-0.8,2.8-1.1,6.5,1.4,8
		c0.9,0.6,2,0.6,3,0.7c2.6,0.2,5.7,0.1,7.2-1.9c-0.9,2.4,0.8,5.1,3,6.3c2.2,1.2,4.9,1.2,7.4,1.3"/>
	<path class="st2" d="M1187.4,438.2c-3.3,0.6-6.6,1.1-9.9,1.6c-3.2,0.5-6.8,0.9-9.4-1.1c-2.8-2.2-3.2-6.1-3.4-9.6
		c1.5,0.8,3.4,0,4.6-1.4c1.2-1.3,1.9-2.9,3.3-3.9c2.4-1.9,5.8-1.4,8.8-0.9c0.5,0.8,0.9,1.6,1.3,2.4"/>
	<path class="st2" d="M1146.5,436.3c-3-0.8-6.9,1.2-8.8-1.2c-0.8-0.9-0.9-2.2-1-3.5c-0.2-5,0.6-10.8,4.8-13.2c1.5-0.8,3.3-1.2,5-1.4
		c1.4-0.2,2.9-0.3,4.4,0c4.4,1,6.4,5.9,7.2,10.2c0.4,2.2,0.6,4.8-1.2,6.3c-0.9,0.8-2.2,1.1-3.3,1.6c-1.9,0.9-3.4,2.6-5.3,3.5
		c-1.9,0.8-4.8,0.3-5.2-1.7"/>
</g>
</svg>
