<?xml version="1.0" encoding="utf-8"?>
<!-- Generator: Adobe Illustrator 25.2.1, SVG Export Plug-In . SVG Version: 6.00 Build 0)  -->
<svg version="1.1" id="Layer_1" xmlns="http://www.w3.org/2000/svg" xmlns:xlink="http://www.w3.org/1999/xlink" x="0px" y="0px"
	 viewBox="0 0 1920 1080" style="enable-background:new 0 0 1920 1080;" xml:space="preserve">
<style type="text/css">
	.st0{fill:none;stroke:#0A0A0A;stroke-width:3;stroke-miterlimit:10;}
</style>
<g id="Layer_2_1_">
	<path class="st0" d="M748.5,401.3c-22.8,3-40.7,17.4-67.5,19.4c-46.3,3.4-93.6,15.4-135.7,35.2c-0.8,0.4-0.9,2.2,0.4,2.2
		c17.7-0.4,41.4,0.7,57.5-2.2c-2.2,3.8-5.5-4-3.8,6.6c21.7,9.6,40.1-4.6,63.8-8c-2.2,4.3-10.3,8,2.3,19.2c3.6,3.2,9.5-0.6,14-2.4
		c39.9-15.8,75.4-44.9,117.9-39.2c29.2,3.9,62.5,28.4,91.6,23.9c-4.7,14.6-11.3,28.4-19.7,41.2c7,3.6,15.4,2.7,21.5-2.1
		c-14.9,8.1-24.3,15.5-32,30.7c9.8,3.7,21.6-0.3,32.9-5.9c-19,13.3-30.3,23.4-49.3,36.7c-6.3,15.5,12.1,15,20.5,8.1
		C850.7,579,843,575.6,826.6,601c-2.4,3.8-2.9,10.1-0.9,14.1c2.5,4.8,6.4,7.9,10.9,4.8s14.8-6.9,17-12.1c-2-2.3,0,0,0.7,3
		s1.5-2.7,0,0c-7.8,14.2-28.4,26.5-27.5,38.2c0.5,6.4,1.5,7,7.6,4.8s17.3-7.9,21.1-13.1c-6.8,12.8-15.5,26.4-12,38.1
		c7.8-0.1,33.5-12.4,40.7-23.5c-8.7,8.2-21.1,26.6-22.9,38.4c3,17.5,45.4-14,60-22c-10.7,3.5-27.8,29.5-23.7,39.9
		s13.9,15.6,23.5,9.7c11.3-6.9,27.9-7.7,33.8-17.3c-3.5,3.2-2.2,2.4-3.1,7.1c5.1,4.1,10.1,8.5,15,4.2s4.2-6.6,8.1-11.9
		c7.1-9.7,17.2-16.6,26.8-23.9c40.1-30.5,72.9-69.4,96.1-114.1c6.7-2.5,12.9-6.2,18.1-11.1c28.3-26.2,54.1-55.9,71.9-90.1
		c14.6,4.8,38.9-17.9,53-24.2c58.2-26,44.6-44.8,80.1-41.8c-26.2-15.5-50.1-42.4-79.2-53.1s-60.3-14.2-91.2-16
		c-77-4.6-154.3,0.2-230.1,14.4c-34.8,6.5-69.2,15-102.3,27.4C794.1,379.8,770.5,388.4,748.5,401.3z"/>
	<path class="st0" d="M1234.2,382.4c0.5-7.6,9.6-13.1,16.6-10.3s9.8,13,5.1,19c-6.6,2.9-14.6,5-21.2-1.5l-0.2-7.2"/>
	<path class="st0" d="M1140.4,530.3c-12.8,10.1-21.6,20.3-34.4,30.4c-5.7,4.5-12.8,9.3-19.7,7c0.4-6.2,0.7-12.3,1.1-18.5
		c-2.7,5.1-8.2,8.1-14,7.5c-0.4-6.8,0.2-13.6,1.7-20.2c-2.4,3.8-6.3,6.4-10.7,7.1c-1.8-11.1-0.7-22.6,3.4-33.1
		c-4.3,4.8-11.1,6.6-17.2,4.3c2.9-7.7,5.9-15.4,8.9-23.1c0.4,3-3.7,3.8-5.7,2.8c-3.3-1.6-3.3-6.6-3.4-9.7
		c-0.4-7.4,0.8-14.8,1.2-22.3c0.2-4.7,0.9-11.2-2-15.4c-5.4-8-13.1,1-18.9,0.1c-0.4-0.1-0.6-1.5-1.2-1.7c-1.3-0.3-2.9,0.2-4.2,0.3
		c-5.8,0.7-11.5,1.5-17.3,2.5c-11.5,1.8-22.9,4.3-34.1,7.7c-21.3,6.6-41.9,17.5-55.4,35.8c-0.3,0.4-0.5,0.7-0.8,1.1
		c13.8-2.2,27.8-3.1,41.8-2.7c-15.3,7.4-31.5,12.6-48.2,15.6c0.7,6.7,7.3,11.4,14,12.4s13.3-1.1,19.7-3c-16.4,5.5-30.1,16.9-38.6,32
		c22.4,1.5,44.8-1.6,65.9-9.3c-21,7.9-42.1,15.8-63.1,23.7c-9.5,3.6-21.1,11.5-17.3,20.9c23.7,5.5,48.6,1.7,69.6-10.5
		c-20.7,10-41.4,20-62.1,30.1c-6.1,2.9-12.4,6.1-16.1,11.8s-3.2,14.5,2.6,17.8c22.5-7.5,45.1-15,67.6-22.5
		c-17.6,5.7-35.5,11.5-50.5,22.4s-26.7,27.8-26.6,46.3c26.3,6.5,55.8-1.7,75-21c-11.1,4.7-21.3,11.5-29.9,19.9
		c-5.2,5.1-10.2,11.8-8.9,18.9c2.2,12.5,20.7,14,31.4,7.2s18.6-18.1,30.4-22.6c-12.4,4.3-20.9,17.8-19.5,30.9
		c8.3-1.1,16.1-4.6,22.5-10"/>
	<path class="st0" d="M964.9,462.5c-5.2,3.3-15.1,4.4-20.3,9.6c-4.3,4.3-10.2,0.3-17.2,4.1c-4.1,2.8-8.9,0.1-13.9-0.3
		s-10-4-10.3-8.9s3.2-6.3,9.9-6.9c-4.3,2.3-9.8,2.6-14,0.2s-6.8-7.8-5.2-12.4s7.5-7.4,11.8-5c-4,0.4-7.8-2.4-9.5-6.1
		s-3.5-5.6-2.7-9.5c1.2-5.4,1.2-9.9,5.8-13.1s15.8-6.8,20.1-3.3c-11.1-1.7-29.5,0.6-20.7-10.9c5.2-5.4,13.5-6.6,20-2.8
		c-6-1-12.7-2.6-15.9-7.8c-4.2-6.8-4.2-19.6,3.3-22.2s21.1,3.4,27.6,7.9c-2-2.9-3.3-6.1-3.7-9.6c7.4-6,18-6,27.5-4.4
		c6.6,1.1,13.1,2.7,19.8,3.1c2.7,0.1,5.9,0.3,8.5-0.6c1-0.4,2.1-0.9,3.1-1.4c2.2-0.9,4.4-1.6,6.6-2.3c4.4-1.4,8.9-2.5,13.5-3.4
		c9.2-1.7,18.6-2.7,28-3c9-0.4,18-0.3,26.9-0.2c8.1,0.1,16.3,0.1,24.3,1.5c6.6,1.3,13.1,3.1,19.5,5.3l29.7,9.6
		c9.3,3,19.1,6.2,26.1,13.1c6,5.9,9.4,13.7,11.5,21.7c1.1,4.1,1.9,8.2,2.6,12.4c0.3,2.8,1.3,5.5,2.7,8c1.7,2.6,2.9,5.4,3.5,8.4
		c0.7,4.2,0.9,8.5,0.6,12.8c-0.2,6.9-0.5,13.8-0.7,20.7"/>
	<path class="st0" d="M1176.5,419.2c0.1,7.5-6.6,13.2-12.7,17.5c-21.4,15-46.5,28-72.5,25.5c-1.8-0.2-3.8-0.5-5-1.9
		c1.9-0.1,3.9-0.2,5.8-0.2c-6.6,0.3-13.3,0-19.9-0.8c-2.7-0.3-5.7-0.9-7.4-3s-0.8-6.3,2-6.4c-7.5,0.5-15-0.3-22.2-2.4
		c-3.2-0.9-7-3.7-5.5-6.7c1.3-2.6,5.8-2.3,7.1-5c-8.4,1.5-17,0.1-25.2-2.1c-3.7-1-7.8-2.6-9.3-6.1s2.6-8.6,5.8-6.4
		c-9-1.4-17.9-2.9-26.9-4.3c-2.1-0.2-4-0.8-5.8-1.9c-2.4-1.9-3.3-5.2-2-8c1.4-2.7,4.5-4.2,7.5-3.4c-8.4-1.7-16-6.3-21.5-12.9
		c1.9-3.9,6.3-5.8,10.4-4.6c-2.3-1.4-4.6-2.8-6.2-4.9s-2-5.3-0.5-7.4c1.9-2.5,5.6-2.6,8.7-3.1s6.8-2.7,6.2-5.8
		c-1.3,0.5-2.7,0-3.5-1.2c9.2-3,21.7-1.9,31.4-2.4"/>
	<path class="st0" d="M710.9,414.4c-5.5,1.5-11.1,3-16.7,4.5c-0.8,2.1,1.3,4.1,3.3,5.1c5.9,2.9,12.8,3,18.8,0.3
		c-3,0-6.4,8.5-4.4,10.8s5.3,2.8,8.3,2.7c11.2-0.2,21.9-4.4,32.7-7.5c19.9-5.6,40.7-7.4,61.2-5.2"/>
	<path class="st0" d="M731.6,440.8c-8.9-0.7-18-1.4-26.5,1c-2.7,0.8-5.3,1.9-7.9,2.9c-10.6,4.4-21.3,8.8-31.9,13.2
		c-7.5-0.6-14.6,3-21.7,5.2s-15.9,2.7-21.2-2.6c-0.3-0.2-0.5-0.6-0.6-0.9c-0.4-1.2,1-2.2,2.1-2.7c7.3-3.4,14.7-6.8,22.1-10.2
		c4-1.8,7.9-3.7,12-5.2c6.2-2.2,12.4-4.1,18.8-5.6c8.6-2.2,17.2-4.5,25.8-6.7"/>
	<path class="st0" d="M694.2,423.9c-42.3,5.3-82.9,21.6-125.5,24.2"/>
	<path class="st0" d="M839.5,442.2c-1.3-5,1.6-10.1,6.5-11.4c2.6-0.7,5.4-0.2,7.7,1.3c0.6-4.3,1.2-8.8,3.6-12.5s7.2-6.1,11.2-4.4
		c-2-6.5,1.6-13.4,8.1-15.4c2.6-0.8,5.4-0.7,8,0.2c0.1-2.8,0.3-5.7,1.8-8.1s4.5-4,7.1-2.9c-0.2-2.2-0.4-4.5,0.4-6.6s9-3.8,11.2-3.3"
		/>
	<path class="st0" d="M814.5,425.4c-0.1-4.6,4.9-7.7,9.5-8.1s9.2,0.8,13.7,0c0.5,0,0.9-0.2,1.3-0.5c0.5-0.5,0.3-1.4,0.2-2.1
		c-1.2-7.7,4-15,11.8-16.2c2.3-0.4,4.7-0.2,6.9,0.6c-0.7-4.5-0.5-9.2,1.5-13.2s6.3-7.1,10.8-6.8c4.7,0.3,8.7,4,13.3,3.8
		c-0.5-7.4,5.8-14.5,13.2-14.9c0.1-5.7,4.8-10.7,10.3-12.1s11.5,0.3,16.2,3.6c1-4.2,4.9-7.2,9-8.5s8.5-1,12.9-0.8l31.8,1.8
		c19.8-11.1,44.4-14.1,67-12.2c3.6,0.3,7.1,0.8,10.7,0.9c12,0.4,23.7-3.4,35.7-4.6c20-2,40.1,3.2,56.8,14.5c-1-3.4,3.2-6.5,6.7-5.8
		s6.1,3.6,8.3,6.3c8.9,10.6,17.8,21.3,26.7,31.9c6.1,0.2,10,5.1,13.9,9.7s10.3,9,15.6,6c-1.6,2.9,0.6,6.6,3.7,7.8s6.5,0.5,9.7-0.1
		c-0.4,6.4,4.4,11.9,10.8,12.3c3.4,0.2,6.7-1.1,9.1-3.6c2.8,4.5,9.8,5.1,13.8,1.7s5-9.5,3.1-14.4c-1.7-4.2-5.4-8.5-3.6-12.7
		c1.5-3.6,6.9-7,4.4-10.1c2.2-0.1,4.3-0.3,6.4-0.4c0.1-6.4-5.6-11.2-11-14.5c-9.9-6.1-21.2-10.7-32.9-10.5s-23.7,5.8-29.4,16
		c-0.9-3.8-1.8-7.5-2.6-11.3l-4.4-0.3c-0.1-3.4-0.2-6.7-0.3-10.1c-2.3,0.4-4.9,0.5-6.9-0.8s-2.5-4.7-0.5-6
		c-10.8-1.9-21.2-5.2-31.1-9.9"/>
	<path class="st0" d="M1177,407.1c1.5-2,3.8-3.2,6.3-3.3c1,9.8,9.8,16.8,19.5,15.8c1.6-0.2,3.1-0.5,4.6-1.1c-1.1,4.1-1.6,9.4,2,11.5
		c1.4,0.7,2.9,1,4.4,1c3.8,0.3,8.2,0.2,10.4-2.8c-1.3,3.4,1.1,7.4,4.3,9.1s7.1,1.8,10.7,1.9"/>
	<path class="st0" d="M1301.2,399.1c-4.8,0.8-9.6,1.5-14.3,2.3s-9.8,1.3-13.6-1.5c-4.1-3.1-4.6-8.8-4.9-13.9c2.2,1.2,4.9-0.1,6.6-2
		s2.8-4.2,4.8-5.7c3.5-2.7,8.4-2.1,12.7-1.3c0.7,1.2,1.3,2.3,1.9,3.5"/>
	<path class="st0" d="M1242,396.4c-4.3-1.2-9.9,1.7-12.8-1.7c-1.1-1.3-1.3-3.2-1.4-5c-0.3-7.2,0.8-15.6,7-19.2
		c2.3-1.1,4.7-1.8,7.2-2.1c2.1-0.4,4.2-0.4,6.3-0.1c6.3,1.4,9.3,8.5,10.5,14.8c0.6,3.2,0.8,7-1.7,9.2c-1.3,1.2-3.2,1.6-4.8,2.3
		c-2.8,1.3-4.9,3.8-7.7,5s-7,0.5-7.6-2.5"/>
</g>
</svg>
