<?xml version="1.0" encoding="utf-8"?>
<!-- Generator: Adobe Illustrator 25.2.0, SVG Export Plug-In . SVG Version: 6.00 Build 0)  -->
<svg version="1.1" id="Layer_1" xmlns="http://www.w3.org/2000/svg" xmlns:xlink="http://www.w3.org/1999/xlink" x="0px" y="0px"
	 viewBox="0 0 1920 1080" style="enable-background:new 0 0 1920 1080;" xml:space="preserve">
<style type="text/css">
	.st0{display:none;}
	.st1{display:inline;}
	.st2{fill:none;stroke:#0A0A0A;stroke-width:2.0736;stroke-miterlimit:10;}
</style>
<g id="Layer_4" class="st0">
	<g id="RC2ZUA_1_" class="st1">
		
			<image style="overflow:visible;enable-background:new    ;" width="1600" height="1700" id="RC2ZUA" xlink:href="C4E9162607F7C9A4.jpeg"  transform="matrix(-0.48 0 0 0.48 944.6223 202.739)">
		</image>
	</g>
</g>
<g id="Layer_2_1_">
	<path class="st2" d="M667.4,346.6c-32.8,4.3-58.6,25.1-97.2,27.9c-66.7,4.9-134.8,22.2-195.4,50.7c-1.2,0.6-1.3,3.2,0.6,3.2
		c25.5-0.6,59.6,1,82.8-3.2c-3.2,5.5-7.9-5.8-5.5,9.5c31.2,13.8,57.7-6.6,91.9-11.5c-3.2,6.2-14.8,11.5,3.3,27.6
		c5.2,4.6,13.7-0.9,20.2-3.5c57.5-22.8,108.6-64.7,169.8-56.4c42,5.6,90,40.9,131.9,34.4c-6.8,20.9-16.3,40.9-28.4,59.3
		c9.6,5.2,22.5,3.9,31-3c-21.5,11.7-35,22.3-46.1,44.2c14.1,5.3,31.1-0.4,47.4-8.5c-27.4,19.2-43.6,33.7-71,52.8
		c-9.1,22.3,17.4,21.6,29.5,11.7c-17.6,20.6-28.7,15.7-52.3,52.3c-3.5,5.5-4.2,14.5-1.3,20.3c3.6,6.9,9.2,11.4,15.7,6.9
		c6.6-4.5,21.3-9.9,24.5-17.4c-2.9-3.3,0,0,1,4.3c1,4.3,2.2-3.9,0,0c-11.2,20.4-40.9,38.2-39.6,55c0.7,9.2,2.2,10.1,10.9,6.9
		c8.8-3,24.9-11.4,30.4-18.9c-9.8,18.4-22.3,38-17.3,54.9c11.2-0.1,48.2-17.9,58.6-33.8c-12.5,11.8-30.4,38.3-33,55.3
		c4.3,25.2,65.4-20.2,86.4-31.7c-15.4,5-40,42.5-34.1,57.5c6,15.1,20,22.5,33.8,14c16.3-9.9,40.2-11.1,48.7-24.9
		c-5,4.6-3.2,3.5-4.5,10.2c7.3,5.9,14.5,12.2,21.6,6c7.1-6.2,6-9.5,11.7-17.1c10.2-14,24.8-23.9,38.6-34.4
		c57.5-43.6,105.1-100.1,138.4-164.3c9.6-3.6,18.6-8.9,26.1-16c40.8-37.7,77.9-80.5,103.5-129.7c21,6.9,56-25.8,76.3-34.8
		c83.8-37.4,64.2-64.5,115.3-60.2c-37.7-22.3-72.1-61.1-114-76.5c-41.9-15.4-86.8-20.4-131.3-23c-110.7-6.6-222.3,0.3-331.3,20.7
		c-50.1,9.4-99.6,21.6-147.3,39.5C733.1,315.6,699.1,328,667.4,346.6z"/>
	<path class="st2" d="M1366.8,319.4c0.7-10.9,13.8-18.9,23.9-14.8c10.1,4,14.1,18.7,7.3,27.4c-9.5,4.2-21,7.2-30.5-2.2
		c-0.1-5.2-0.1-5.2-0.3-10.4"/>
	<path class="st2" d="M1237.5,532.4c-18.4,14.5-36.9,29.2-55.3,43.8c-8.2,6.5-18.4,13.4-28.4,10.1c0.6-8.9,1-17.7,1.6-26.6
		c-3.6,7.2-12.1,11.8-20.2,10.8c-0.6-9.8,0.3-19.4,2.4-29.1c-3.3,5.3-9.1,9.2-15.4,10.2c-2.6-16-1-32.5,4.9-47.7
		c-5.9,6.9-16.3,9.5-24.8,6.2c4.2-11.1,8.5-22.2,12.8-33.3c0.6,4.3-5.3,5.5-8.2,4c-4.8-2.3-4.8-9.5-4.9-14
		c-0.6-10.7,1.2-21.3,1.7-32.1c0.3-6.8,1.3-16.1-2.9-22.2c-7.8-11.5-18.9,1.4-27.2,0.1c-0.6-0.1-0.9-2.2-1.7-2.4
		c-1.9-0.4-4.2,0.3-6,0.4c-8.4,1-16.6,2.2-24.9,3.6c-16.6,2.7-33.1,6-49.1,11.1c-30.7,9.5-60.3,25.2-79.8,51.6
		c-0.4,0.6-0.7,1-1.2,1.6c19.9-3.2,40-4.5,60.2-3.9c-22,10.7-45.4,18.1-69.4,22.5c1,9.6,10.5,16.4,20.2,17.9
		c9.5,1.3,19.2-1.6,28.4-4.3c-23.3,7.8-43.6,24.6-55.6,46.1c32.1,2.2,64.7-2.3,94.9-13.4c-30.2,11.4-60.6,22.8-90.9,34.1
		c-13.7,5.2-30.4,16.6-24.9,30.1c33.7,7.9,70.3,2.4,100.2-15.1c-29.8,14.4-59.6,28.8-89.4,43.3c-8.8,4.2-17.9,8.8-23.2,17
		c-5.3,8.2-4.6,20.9,3.7,25.6c32.4-10.8,64.9-21.6,97.3-32.4c-25.3,8.2-51.1,16.6-72.7,32.3c-21.6,15.7-38.4,40-38.3,66.7
		c37.9,9.4,80.4-2.4,108-30.2c-16,6.8-30.7,16.6-43.1,28.7c-7.5,7.3-14.7,17-12.8,27.2c3.2,18,29.8,20.2,45.2,10.4
		c15.4-9.8,26.8-26.1,43.8-32.5c-17.9,6.2-30.1,25.6-28.1,44.5c11.8-1.6,23.3-6.6,32.4-14.4"/>
	<path class="st2" d="M979,434.7c-7.5,4.8-21.7,6.3-29.2,13.8c-6.2,6.2-14.7,0.4-24.8,5.9c-5.9,4-12.8,0.1-20-0.4
		c-7.2-0.4-14.4-5.8-14.8-12.8c-0.6-7.2,4.6-9.1,14.3-9.9c-6.2,3.3-14.1,3.7-20.2,0.3c-6-3.5-9.8-11.2-7.5-17.9
		c2.3-6.6,10.8-10.7,17-7.2c-5.8,0.6-11.2-3.5-13.7-8.8c-2.4-5.2-5-8.1-3.9-13.7c1.7-7.8,1.7-14.3,8.4-18.9
		c6.6-4.6,22.8-9.8,28.9-4.8c-16-2.4-42.5,0.9-29.8-15.7c7.2-7.8,19.9-9.5,28.8-4c-8.6-1.4-18.3-3.7-22.9-11.2c-6-9.8-6-28.2,4.8-32
		c10.8-3.7,30.4,4.9,39.7,11.4c-2.9-4-4.6-8.8-5.3-13.8c10.7-8.6,25.9-8.6,39.6-6.3c9.5,1.6,18.9,3.9,28.5,4.5
		c3.9,0.1,8.5,0.4,12.2-0.9c1.4-0.6,3-1.3,4.5-2c3.2-1.3,6.3-2.3,9.5-3.3c6.3-2,13-3.6,19.4-4.9c13.2-2.6,26.8-3.7,40.3-4.3
		c13-0.6,25.9-0.4,38.7-0.3c11.7,0.1,23.5,0.1,35,2.2c9.6,1.7,18.9,4.6,28.1,7.6c14.3,4.6,28.5,9.2,42.8,13.8
		c13.4,4.3,27.5,8.9,37.6,18.9c8.6,8.5,13.5,19.7,16.6,31.2c1.6,5.9,2.7,11.8,3.7,17.9c0.7,4.3,1.6,7.8,3.9,11.5s4.2,7.6,5,12.1
		c1.2,6,1,12.2,0.9,18.4c-0.3,9.9-0.7,19.9-1,29.8"/>
	<path class="st2" d="M869.7,425.1"/>
	<path class="st2" d="M1283.7,372.4c0.1,10.8-9.5,19-18.3,25.2c-30.8,21.6-67,40.3-104.4,36.7c-2.6-0.3-5.5-0.7-7.2-2.7
		c2.7-0.1,5.6-0.3,8.4-0.3c-9.5,0.4-19.2,0-28.7-1.2c-3.9-0.4-8.2-1.3-10.7-4.3c-2.4-3-1.2-9.1,2.9-9.2c-10.7,0.7-21.6-0.4-32-3.5
		c-4.6-1.3-10.1-5.3-7.9-9.6c1.9-3.7,8.4-3.3,10.2-7.2c-12.1,2.2-24.5,0.1-36.3-3c-5.3-1.4-11.2-3.7-13.4-8.8
		c-2.2-5,3.7-12.4,8.4-9.2c-13-2-25.8-4.2-38.7-6.2c-2.9-0.4-5.9-1-8.4-2.7c-3.5-2.6-4.8-7.6-2.9-11.5c1.9-3.9,6.6-6,10.8-4.9
		c-12-2.3-23.2-9.1-31-18.6c2.4-5.5,9.2-8.5,15-6.6c-3.3-2-6.6-4-8.9-7.1c-2.3-3-2.9-7.6-0.7-10.7c2.7-3.6,8.1-3.7,12.5-4.5
		s9.8-3.9,8.9-8.4c-1.7,0.7-4-0.1-5-1.7c13.2-4.3,31.2-2.7,45.2-3.5"/>
	<path class="st2" d="M613.3,365.5c-7.9,2.2-16,4.3-24,6.5c-1.2,3,1.9,5.9,4.8,7.3c8.4,4.2,18.6,4.3,27.1,0.4
		c-4.3,0-9.2,12.2-6.3,15.6s7.6,4,12,3.9c16.1-0.3,31.5-6.3,47.1-10.8c28.5-8.1,58.6-10.7,88.1-7.5"/>
	<path class="st2" d="M643.1,403.5c-12.8-1-25.9-2-38.2,1.4c-3.9,1.2-7.6,2.7-11.4,4.2c-15.3,6.3-30.7,12.7-45.9,19
		c-10.8-0.9-21,4.3-31.2,7.5c-10.4,3-22.9,3.9-30.5-3.7c-0.3-0.3-0.7-0.7-0.9-1.3c-0.6-1.7,1.4-3.2,3-3.9
		c10.5-4.9,21.2-9.8,31.8-14.7c5.8-2.6,11.4-5.3,17.3-7.5c8.8-3.3,17.9-5.8,27.1-8.1c12.4-3.2,24.8-6.5,37.2-9.6"/>
	<path class="st2" d="M589.2,379.2c-60.9,7.6-119.4,31.1-180.7,34.8"/>
	<path class="st2" d="M798.4,405.5c-1.4-5.2,0.7-11.2,5.2-14.4c4.5-3.2,10.8-3.2,15.3-0.1c0.9-6.2,1.7-12.7,5.2-18
		c3.5-5.2,10.4-8.8,16.1-6.3c-1.9-6.3,0-13.5,4.8-18.1c4.8-4.5,12.2-6,18.4-3.7c0.1-4,0.4-8.2,2.6-11.7c2.2-3.5,6.5-5.8,10.2-4.2
		c-0.3-3.2-0.6-6.5,0.6-9.5c1.2-3,13-5.5,16.1-4.8"/>
	<path class="st2" d="M762.4,381.3c-0.1-6.6,7.1-11.1,13.7-11.7s13.2,1.2,19.7,0c0.7-0.1,1.4-0.3,1.9-0.7c0.7-0.7,0.4-2,0.3-3
		c-1.2-6.9,1.7-14.4,7.1-18.9c5.3-4.5,13.2-5.9,19.9-3.6c-1-6.5-0.7-13.2,2.2-19c2.9-5.8,9.1-10.2,15.6-9.8
		c6.8,0.4,12.5,5.8,19.2,5.5c-0.7-10.7,8.4-20.9,19-21.5c0.1-8.2,6.9-15.4,14.8-17.4c7.9-2,16.6,0.4,23.3,5.2
		c1.4-6,7.1-10.4,13-12.2c5.9-1.7,12.2-1.4,18.6-1.2c15.3,0.9,30.5,1.7,45.8,2.6c28.5-16,63.9-20.3,96.5-17.6
		c5.2,0.4,10.2,1.2,15.4,1.3c17.3,0.6,34.1-4.9,51.4-6.6c28.5-2.9,58,4.6,81.8,20.9c-1.4-4.9,4.6-9.4,9.6-8.4c5,1,8.8,5.2,12,9.1
		c12.8,15.3,25.6,30.7,38.4,45.9c8.8,0.3,14.4,7.3,20,14c5.6,6.6,14.8,13,22.5,8.6c-2.3,4.2,0.9,9.5,5.3,11.2
		c4.5,1.7,9.4,0.7,14-0.1c-0.4,6.8,3.7,13.5,9.9,16.3c6.2,2.7,14,1.2,18.7-3.7c4,6.5,14.1,7.3,19.9,2.4c5.8-4.9,7.2-13.7,4.5-20.7
		c-2.4-6-7.8-12.2-5.2-18.3c2.2-5.2,9.9-10.1,6.3-14.5c3.2-0.1,6.2-0.4,9.2-0.6c0.1-9.2-8.1-16.1-15.8-20.9
		c-14.3-8.8-30.5-15.4-47.4-15.1c-16.8,0.3-34.1,8.4-42.3,23c-1.3-5.5-2.6-10.8-3.7-16.3c-2.2-0.1-4.2-0.3-6.3-0.4
		c-0.1-4.9-0.3-9.6-0.4-14.5c-3.3,0.6-7.1,0.7-9.9-1.2c-2.9-1.9-3.6-6.8-0.7-8.6c-15.4-2.6-30.5-7.5-44.8-14.3"/>
	<path class="st2" d="M1284.4,355c2-2.9,5.6-4.8,9.1-4.8c0.9,7.8,5.3,15.1,12.1,19.2c6.6,4.2,15.3,4.9,22.6,2
		c-1.6,5.9-2.3,13.5,2.9,16.6c1.9,1.2,4.2,1.3,6.3,1.4c5.5,0.4,11.8,0.3,15-4c-1.9,4.9,1.6,10.7,6.2,13.1c4.6,2.4,10.2,2.6,15.4,2.7
		"/>
	<path class="st2" d="M1463.3,343.4c-6.9,1.2-13.8,2.2-20.6,3.3c-6.6,1-14.1,1.9-19.6-2.2c-5.9-4.5-6.6-12.7-7.1-20
		c3.2,1.7,7.1-0.1,9.5-2.9c2.4-2.7,4-6,6.9-8.2c5-3.9,12.1-3,18.3-1.9c1,1.7,1.9,3.3,2.7,5"/>
	<path class="st2" d="M1378,339.6c-6.2-1.7-14.3,2.4-18.4-2.4c-1.6-1.9-1.9-4.6-2-7.2c-0.4-10.4,1.2-22.5,10.1-27.6
		c3.2-1.7,6.8-2.4,10.4-3c3-0.4,6-0.7,9.1-0.1c9.1,2,13.4,12.2,15.1,21.3c0.9,4.6,1.2,10.1-2.4,13.2c-1.9,1.7-4.6,2.3-6.9,3.3
		c-4,1.9-7.1,5.5-11.1,7.2c-4,1.7-10.1,0.7-10.9-3.6"/>
</g>
</svg>
