<svg id="Layer_1" data-name="Layer 1" xmlns="http://www.w3.org/2000/svg" viewBox="0 0 1920 1080"><defs><style>.cls-1{fill:none;stroke:#0a0a0a;stroke-miterlimit:10;stroke-width:1.44px;}</style></defs><g id="Layer_2" data-name="Layer 2"><path class="cls-1" d="M748.5,401.3c-22.8,3-40.7,17.4-67.5,19.4-46.3,3.4-93.6,15.4-135.7,35.2-.8.4-.9,2.2.4,2.2,17.7-.4,41.4.7,57.5-2.2-2.2,3.8-5.5-4-3.8,6.6,21.7,9.6,40.1-4.6,63.8-8-2.2,4.3-10.3,8,2.3,19.2,3.6,3.2,9.5-.6,14-2.4,39.9-15.8,75.4-44.9,117.9-39.2,29.2,3.9,62.5,28.4,91.6,23.9a171.51,171.51,0,0,1-19.7,41.2,20,20,0,0,0,21.5-2.1c-14.9,8.1-24.3,15.5-32,30.7,9.8,3.7,21.6-.3,32.9-5.9-19,13.3-30.3,23.4-49.3,36.7-6.3,15.5,12.1,15,20.5,8.1C850.7,579,843,575.6,826.6,601c-2.4,3.8-2.9,10.1-.9,14.1,2.5,4.8,6.4,7.9,10.9,4.8s14.8-6.9,17-12.1c-2-2.3,0,0,.7,3s1.5-2.7,0,0c-7.8,14.2-28.4,26.5-27.5,38.2.5,6.4,1.5,7,7.6,4.8s17.3-7.9,21.1-13.1c-6.8,12.8-15.5,26.4-12,38.1,7.8-.1,33.5-12.4,40.7-23.5-8.7,8.2-21.1,26.6-22.9,38.4,3,17.5,45.4-14,60-22-10.7,3.5-27.8,29.5-23.7,39.9s13.9,15.6,23.5,9.7c11.3-6.9,27.9-7.7,33.8-17.3-3.5,3.2-2.2,2.4-3.1,7.1,5.1,4.1,10.1,8.5,15,4.2s4.2-6.6,8.1-11.9c7.1-9.7,17.2-16.6,26.8-23.9a340.38,340.38,0,0,0,96.1-114.1,53.63,53.63,0,0,0,18.1-11.1c28.3-26.2,54.1-55.9,71.9-90.1,14.6,4.8,38.9-17.9,53-24.2,58.2-26,44.6-44.8,80.1-41.8-26.2-15.5-50.1-42.4-79.2-53.1s-60.3-14.2-91.2-16a944.05,944.05,0,0,0-230.1,14.4c-34.8,6.5-69.2,15-102.3,27.4C794.1,379.8,770.5,388.4,748.5,401.3Z"/><path class="cls-1" d="M1234.2,382.4c.5-7.6,9.6-13.1,16.6-10.3s9.8,13,5.1,19c-6.6,2.9-14.6,5-21.2-1.5l-.2-7.2"/><path class="cls-1" d="M1144.4,530.3c-12.8,10.1-25.6,20.3-38.4,30.4-5.7,4.5-12.8,9.3-19.7,7,.4-6.2.7-12.3,1.1-18.5a14.18,14.18,0,0,1-14,7.5,72.39,72.39,0,0,1,1.7-20.2,15.7,15.7,0,0,1-10.7,7.1,63.34,63.34,0,0,1,3.4-33.1,15.68,15.68,0,0,1-17.2,4.3c2.9-7.7,5.9-15.4,8.9-23.1.4,3-3.7,3.8-5.7,2.8-3.3-1.6-3.3-6.6-3.4-9.7-.4-7.4.8-14.8,1.2-22.3.2-4.7.9-11.2-2-15.4-5.4-8-13.1,1-18.9.1-.4-.1-.6-1.5-1.2-1.7-1.3-.3-2.9.2-4.2.3-5.8.7-11.5,1.5-17.3,2.5a247.38,247.38,0,0,0-34.1,7.7c-21.3,6.6-41.9,17.5-55.4,35.8-.3.4-.5.7-.8,1.1a224.78,224.78,0,0,1,41.8-2.7,186.15,186.15,0,0,1-48.2,15.6c.7,6.7,7.3,11.4,14,12.4s13.3-1.1,19.7-3a70.14,70.14,0,0,0-38.6,32,160.65,160.65,0,0,0,65.9-9.3c-21,7.9-42.1,15.8-63.1,23.7-9.5,3.6-21.1,11.5-17.3,20.9A95.67,95.67,0,0,0,961.5,572q-31.05,15-62.1,30.1c-6.1,2.9-12.4,6.1-16.1,11.8s-3.2,14.5,2.6,17.8c22.5-7.5,45.1-15,67.6-22.5-17.6,5.7-35.5,11.5-50.5,22.4s-26.7,27.8-26.6,46.3c26.3,6.5,55.8-1.7,75-21a97.14,97.14,0,0,0-29.9,19.9c-5.2,5.1-10.2,11.8-8.9,18.9,2.2,12.5,20.7,14,31.4,7.2s18.6-18.1,30.4-22.6c-12.4,4.3-20.9,17.8-19.5,30.9a43.87,43.87,0,0,0,22.5-10"/><path class="cls-1" d="M964.9,462.5c-5.2,3.3-15.1,4.4-20.3,9.6-4.3,4.3-10.2.3-17.2,4.1-4.1,2.8-8.9.1-13.9-.3s-10-4-10.3-8.9,3.2-6.3,9.9-6.9c-4.3,2.3-9.8,2.6-14,.2s-6.8-7.8-5.2-12.4,7.5-7.4,11.8-5c-4,.4-7.8-2.4-9.5-6.1s-3.5-5.6-2.7-9.5c1.2-5.4,1.2-9.9,5.8-13.1s15.8-6.8,20.1-3.3c-11.1-1.7-29.5.6-20.7-10.9a16.39,16.39,0,0,1,20-2.8c-6-1-12.7-2.6-15.9-7.8-4.2-6.8-4.2-19.6,3.3-22.2s21.1,3.4,27.6,7.9a21.67,21.67,0,0,1-3.7-9.6c7.4-6,18-6,27.5-4.4,6.6,1.1,13.1,2.7,19.8,3.1,2.7.1,5.9.3,8.5-.6,1-.4,2.1-.9,3.1-1.4,2.2-.9,4.4-1.6,6.6-2.3a127,127,0,0,1,13.5-3.4,187.29,187.29,0,0,1,28-3c9-.4,18-.3,26.9-.2,8.1.1,16.3.1,24.3,1.5a143.88,143.88,0,0,1,19.5,5.3l29.7,9.6c9.3,3,19.1,6.2,26.1,13.1,6,5.9,9.4,13.7,11.5,21.7,1.1,4.1,1.9,8.2,2.6,12.4a20.53,20.53,0,0,0,2.7,8,25,25,0,0,1,3.5,8.4,60.73,60.73,0,0,1,.6,12.8c-.2,6.9-.5,13.8-.7,20.7"/><path class="cls-1" d="M1176.5,419.2c.1,7.5-6.6,13.2-12.7,17.5-21.4,15-46.5,28-72.5,25.5-1.8-.2-3.8-.5-5-1.9,1.9-.1,3.9-.2,5.8-.2a120.5,120.5,0,0,1-19.9-.8c-2.7-.3-5.7-.9-7.4-3s-.8-6.3,2-6.4a64.25,64.25,0,0,1-22.2-2.4c-3.2-.9-7-3.7-5.5-6.7,1.3-2.6,5.8-2.3,7.1-5-8.4,1.5-17,.1-25.2-2.1-3.7-1-7.8-2.6-9.3-6.1s2.6-8.6,5.8-6.4c-9-1.4-17.9-2.9-26.9-4.3a13.27,13.27,0,0,1-5.8-1.9,6.67,6.67,0,0,1-2-8,6.6,6.6,0,0,1,7.5-3.4,37.34,37.34,0,0,1-21.5-12.9,8.75,8.75,0,0,1,10.4-4.6c-2.3-1.4-4.6-2.8-6.2-4.9s-2-5.3-.5-7.4c1.9-2.5,5.6-2.6,8.7-3.1s6.8-2.7,6.2-5.8a3,3,0,0,1-3.5-1.2c9.2-3,21.7-1.9,31.4-2.4"/><path class="cls-1" d="M710.9,414.4c-5.5,1.5-11.1,3-16.7,4.5-.8,2.1,1.3,4.1,3.3,5.1a22.09,22.09,0,0,0,18.8.3c-3,0-6.4,8.5-4.4,10.8s5.3,2.8,8.3,2.7c11.2-.2,21.9-4.4,32.7-7.5a162,162,0,0,1,61.2-5.2"/><path class="cls-1" d="M731.6,440.8c-8.9-.7-18-1.4-26.5,1-2.7.8-5.3,1.9-7.9,2.9-10.6,4.4-21.3,8.8-31.9,13.2-7.5-.6-14.6,3-21.7,5.2s-15.9,2.7-21.2-2.6a2,2,0,0,1-.6-.9c-.4-1.2,1-2.2,2.1-2.7,7.3-3.4,14.7-6.8,22.1-10.2,4-1.8,7.9-3.7,12-5.2a169.69,169.69,0,0,1,18.8-5.6c8.6-2.2,17.2-4.5,25.8-6.7"/><path class="cls-1" d="M694.2,423.9c-42.3,5.3-82.9,21.6-125.5,24.2"/><path class="cls-1" d="M839.5,442.2a9.29,9.29,0,0,1,14.2-10.1c.6-4.3,1.2-8.8,3.6-12.5s7.2-6.1,11.2-4.4A12.33,12.33,0,0,1,884.6,400c.1-2.8.3-5.7,1.8-8.1s4.5-4,7.1-2.9c-.2-2.2-.4-4.5.4-6.6s9-3.8,11.2-3.3"/><path class="cls-1" d="M814.5,425.4c-.1-4.6,4.9-7.7,9.5-8.1s9.2.8,13.7,0a2.54,2.54,0,0,0,1.3-.5c.5-.5.3-1.4.2-2.1a14.17,14.17,0,0,1,18.7-15.6c-.7-4.5-.5-9.2,1.5-13.2s6.3-7.1,10.8-6.8c4.7.3,8.7,4,13.3,3.8-.5-7.4,5.8-14.5,13.2-14.9.1-5.7,4.8-10.7,10.3-12.1s11.5.3,16.2,3.6c1-4.2,4.9-7.2,9-8.5s8.5-1,12.9-.8l31.8,1.8c19.8-11.1,44.4-14.1,67-12.2,3.6.3,7.1.8,10.7.9,12,.4,23.7-3.4,35.7-4.6a86.16,86.16,0,0,1,56.8,14.5c-1-3.4,3.2-6.5,6.7-5.8s6.1,3.6,8.3,6.3c8.9,10.6,17.8,21.3,26.7,31.9,6.1.2,10,5.1,13.9,9.7s10.3,9,15.6,6c-1.6,2.9.6,6.6,3.7,7.8s6.5.5,9.7-.1a11.56,11.56,0,0,0,19.9,8.7c2.8,4.5,9.8,5.1,13.8,1.7s5-9.5,3.1-14.4c-1.7-4.2-5.4-8.5-3.6-12.7,1.5-3.6,6.9-7,4.4-10.1,2.2-.1,4.3-.3,6.4-.4.1-6.4-5.6-11.2-11-14.5-9.9-6.1-21.2-10.7-32.9-10.5s-23.7,5.8-29.4,16c-.9-3.8-1.8-7.5-2.6-11.3l-4.4-.3c-.1-3.4-.2-6.7-.3-10.1-2.3.4-4.9.5-6.9-.8s-2.5-4.7-.5-6a118.68,118.68,0,0,1-31.1-9.9"/><path class="cls-1" d="M1177,407.1a8,8,0,0,1,6.3-3.3,17.76,17.76,0,0,0,24.1,14.7c-1.1,4.1-1.6,9.4,2,11.5a9.47,9.47,0,0,0,4.4,1c3.8.3,8.2.2,10.4-2.8-1.3,3.4,1.1,7.4,4.3,9.1s7.1,1.8,10.7,1.9"/><path class="cls-1" d="M1301.2,399.1c-4.8.8-9.6,1.5-14.3,2.3s-9.8,1.3-13.6-1.5c-4.1-3.1-4.6-8.8-4.9-13.9,2.2,1.2,4.9-.1,6.6-2s2.8-4.2,4.8-5.7c3.5-2.7,8.4-2.1,12.7-1.3.7,1.2,1.3,2.3,1.9,3.5"/><path class="cls-1" d="M1242,396.4c-4.3-1.2-9.9,1.7-12.8-1.7-1.1-1.3-1.3-3.2-1.4-5-.3-7.2.8-15.6,7-19.2a22.17,22.17,0,0,1,7.2-2.1,19,19,0,0,1,6.3-.1c6.3,1.4,9.3,8.5,10.5,14.8.6,3.2.8,7-1.7,9.2-1.3,1.2-3.2,1.6-4.8,2.3-2.8,1.3-4.9,3.8-7.7,5s-7,.5-7.6-2.5"/></g></svg>