<?xml version="1.0" standalone="no"?>
<!DOCTYPE svg PUBLIC "-//W3C//DTD SVG 20010904//EN"
 "http://www.w3.org/TR/2001/REC-SVG-20010904/DTD/svg10.dtd">
<svg version="1.0" xmlns="http://www.w3.org/2000/svg"
 width="1920.000000pt" height="1920.000000pt" viewBox="0 0 1920.000000 1920.000000"
 preserveAspectRatio="xMidYMid meet">
<metadata>
Created by potrace 1.11, written by Peter Selinger 2001-2013
</metadata>
<g transform="translate(0.000000,1920.000000) scale(0.100000,-0.100000)"
fill="#000000" stroke="none">
<path d="M10787 11734 c-1 -1 -94 -4 -207 -8 -113 -4 -227 -9 -255 -11 -27 -2
-84 -6 -125 -10 -621 -49 -1275 -166 -1750 -313 -276 -86 -679 -243 -846 -331
-65 -34 -146 -68 -193 -80 -44 -12 -152 -48 -240 -81 -203 -76 -266 -91 -441
-105 -168 -14 -434 -61 -630 -112 -257 -66 -664 -222 -658 -252 3 -14 33 -16
271 -15 l267 1 0 -22 c0 -15 9 -26 28 -34 47 -18 115 -30 157 -26 22 3 85 6
140 9 76 4 122 13 189 36 50 16 90 30 91 30 0 0 -1 -17 -3 -39 -3 -34 1 -44
40 -85 25 -25 52 -46 62 -46 32 0 148 51 446 196 410 199 566 247 771 238 116
-4 206 -29 464 -128 223 -86 341 -118 440 -119 l72 0 -28 -72 c-29 -77 -101
-222 -143 -292 l-26 -41 32 -11 c17 -6 44 -11 60 -11 28 0 27 -2 -30 -49 -77
-65 -176 -201 -158 -219 3 -3 31 -7 61 -10 48 -4 99 4 169 25 20 6 -150 -128
-306 -240 -94 -67 -107 -85 -103 -137 4 -53 36 -73 108 -68 31 2 54 1 50 -2
-5 -4 -39 -31 -78 -60 -83 -62 -139 -120 -201 -211 -40 -59 -46 -73 -46 -119
1 -40 7 -59 27 -86 45 -59 77 -54 213 32 28 19 52 32 52 30 0 -8 -67 -87 -132
-154 -100 -105 -138 -164 -138 -217 0 -41 18 -75 40 -75 21 0 120 42 163 70
26 16 47 27 47 24 0 -2 -14 -32 -31 -66 -40 -80 -59 -142 -59 -198 0 -40 10
-73 21 -71 39 5 190 71 254 111 l36 22 -30 -49 c-48 -78 -92 -179 -93 -214 -2
-46 30 -69 88 -64 65 5 249 94 368 178 28 20 27 18 -13 -41 -80 -118 -106
-213 -76 -276 35 -74 113 -122 178 -111 15 3 53 18 85 34 31 16 86 38 121 50
35 12 80 31 101 41 l38 20 31 -29 c16 -15 44 -34 62 -41 51 -21 77 -5 141 90
61 92 114 144 253 250 367 279 639 575 866 940 36 58 79 129 95 159 16 30 42
62 57 70 59 32 147 98 199 146 29 28 97 86 151 129 54 43 95 81 92 84 -3 3
-20 -5 -38 -18 -27 -20 25 43 136 165 71 77 284 388 323 471 13 27 20 32 41
28 61 -11 166 35 346 152 53 35 155 93 225 128 156 79 281 161 392 260 115
102 151 119 270 126 l95 5 -47 28 c-43 25 -157 109 -303 222 -301 234 -408
289 -695 360 -141 35 -364 70 -510 80 -47 3 -103 8 -125 10 -94 10 -758 27
-768 19z m628 -28 c11 -3 51 -5 88 -5 50 -1 68 -4 64 -13 -7 -21 137 -78 261
-103 22 -5 32 -11 28 -20 -7 -20 25 -54 53 -58 27 -4 38 -25 35 -67 -1 -22 3
-30 21 -34 23 -6 34 -27 49 -99 l7 -28 32 43 c66 87 190 136 313 124 153 -15
346 -122 377 -208 4 -11 1 -19 -6 -20 -7 0 -16 -2 -22 -3 -5 -2 -15 -3 -22 -4
-7 0 -10 -7 -7 -15 3 -8 -6 -32 -20 -53 -32 -46 -33 -76 -5 -139 24 -53 26
-92 9 -134 -20 -49 -89 -65 -131 -31 -22 18 -23 18 -56 -2 -24 -14 -43 -18
-65 -13 -44 9 -88 53 -88 88 0 27 -1 28 -54 28 -64 0 -90 19 -84 61 4 25 2 26
-20 18 -41 -16 -85 7 -153 76 -35 36 -77 70 -95 75 -19 7 -52 34 -81 68 -26
31 -50 59 -53 62 -3 3 -48 56 -100 118 -122 147 -165 170 -215 117 -13 -15
-26 -22 -29 -16 -12 20 -163 84 -251 107 -78 20 -108 23 -225 19 -76 -2 -180
-12 -239 -23 -81 -16 -128 -19 -220 -14 -178 8 -335 5 -414 -8 -89 -15 -216
-54 -281 -87 -54 -27 -43 -27 -351 -7 -110 7 -167 -6 -211 -50 -30 -30 -33
-31 -65 -18 -85 35 -182 5 -216 -67 -12 -27 -30 -44 -56 -56 -38 -17 -87 -76
-87 -107 0 -27 -13 -28 -73 -6 -61 22 -89 20 -131 -13 -36 -29 -55 -69 -57
-122 -2 -43 -3 -44 -33 -42 -41 2 -99 -27 -126 -65 -12 -17 -25 -52 -28 -78
l-7 -47 -80 0 c-86 -1 -139 -20 -149 -53 -6 -16 -21 -18 -174 -19 -191 0 -323
-20 -512 -77 -194 -58 -282 -69 -320 -38 -21 17 -22 21 -11 55 7 20 16 37 20
37 4 0 16 7 27 15 18 14 18 14 -6 8 -14 -3 -54 -7 -90 -10 -53 -3 -71 0 -98
17 -18 11 -31 24 -28 29 3 4 36 16 73 26 37 10 73 22 79 26 21 17 246 99 311
114 40 9 135 49 228 95 268 133 730 300 1062 385 372 95 909 190 1248 220 39
4 79 8 90 10 12 1 70 6 130 10 61 4 118 9 127 11 10 1 98 6 195 10 98 3 179 8
181 9 5 4 716 -4 737 -9z m340 -26 c99 -11 258 -33 310 -44 343 -74 461 -125
705 -305 93 -69 118 -94 88 -90 -33 4 -50 -5 -97 -52 -29 -28 -54 -49 -57 -46
-3 2 -2 16 2 31 4 19 13 26 29 26 30 0 34 8 23 47 -23 84 -239 204 -392 217
-110 10 -230 -30 -298 -98 -40 -40 -43 -39 -53 17 -6 30 -11 37 -31 37 -22 0
-24 4 -24 50 0 49 -1 50 -29 50 -35 0 -68 27 -52 43 19 19 12 24 -61 42 -40 9
-110 31 -156 47 -80 29 -100 47 -45 42 15 -2 78 -8 138 -14z m-594 -65 c82
-17 200 -63 265 -104 43 -26 49 -28 53 -13 5 28 22 42 50 42 35 -1 49 -14 171
-160 58 -69 109 -130 115 -136 5 -6 23 -27 38 -46 17 -21 41 -38 58 -42 18 -3
52 -29 87 -64 70 -72 101 -93 141 -94 19 -1 31 -6 31 -15 0 -8 11 -25 25 -38
18 -19 35 -25 67 -25 40 0 44 -3 59 -39 9 -22 28 -47 43 -56 31 -21 96 -24
130 -6 21 11 28 11 47 -3 68 -47 159 18 159 114 0 17 -11 58 -25 91 -22 50
-24 63 -13 82 12 21 12 21 16 2 10 -62 34 -104 69 -120 36 -17 49 -17 188 1
36 5 38 4 18 -8 -12 -7 -41 -31 -65 -53 -82 -76 -153 -133 -225 -179 -95 -60
-273 -149 -273 -136 0 5 -14 10 -31 10 -41 0 -97 27 -104 51 -4 11 -3 34 0 52
l7 32 -25 -27 c-22 -23 -35 -28 -75 -28 -26 0 -56 6 -65 13 -20 15 -27 52 -16
90 7 24 5 28 -7 23 -42 -16 -68 -17 -110 -6 -54 15 -97 57 -113 110 -13 44
-32 50 -67 25 -20 -13 -22 -12 -34 28 -33 111 -101 203 -188 254 -71 42 -563
203 -682 223 -84 15 -470 19 -619 7 -117 -9 -219 -30 -341 -69 -110 -36 -135
-37 -292 -10 -134 24 -219 21 -283 -7 -52 -23 -60 -37 -46 -74 10 -27 4 -35
-15 -18 -22 20 -129 51 -177 51 -65 0 -92 -21 -109 -85 -9 -33 -19 -47 -40
-56 -25 -10 -34 -30 -29 -62 1 -4 -12 -13 -29 -19 -31 -10 -60 -52 -60 -85 0
-14 -8 -18 -39 -18 -66 -1 -131 -64 -131 -127 0 -23 -4 -28 -24 -28 -41 0 -84
-45 -104 -110 -13 -43 -21 -57 -31 -51 -16 10 -60 1 -89 -20 -29 -21 -47 -72
-33 -96 9 -15 10 -13 11 14 0 63 60 100 126 78 19 -6 22 -2 28 41 11 85 53
130 116 126 24 -2 26 1 22 32 -8 71 56 134 125 123 30 -5 33 -3 38 21 11 50
30 77 58 80 15 2 27 6 28 10 0 4 2 20 3 35 2 28 22 50 41 44 6 -2 10 -8 10
-13 2 -22 19 -61 40 -90 l24 -31 -35 -16 c-39 -19 -74 -70 -67 -97 5 -19 42
-40 71 -40 10 0 4 -8 -18 -21 -44 -27 -57 -44 -71 -94 -20 -71 -15 -108 19
-158 31 -46 31 -47 11 -58 -11 -6 -26 -24 -34 -41 -22 -53 6 -113 67 -144 23
-12 26 -19 22 -42 -7 -34 26 -79 71 -98 57 -23 157 -29 193 -10 45 23 40 10
-16 -43 -54 -52 -118 -131 -105 -131 4 0 33 4 65 9 90 15 315 25 303 13 -16
-16 -232 -88 -336 -112 -89 -20 -96 -24 -91 -43 16 -68 89 -117 173 -117 l52
0 -44 -29 c-64 -43 -160 -138 -202 -200 -20 -30 -34 -57 -32 -59 6 -6 243 -5
280 2 58 10 140 18 135 13 -3 -2 -93 -37 -200 -77 -225 -83 -257 -98 -310
-146 -63 -57 -77 -137 -27 -149 94 -23 256 -28 367 -10 46 7 24 -5 -305 -165
-155 -76 -214 -156 -186 -251 21 -69 35 -71 163 -29 164 55 169 55 101 13 -85
-53 -176 -141 -227 -221 -23 -37 -45 -75 -49 -84 -9 -25 -102 -92 -186 -133
-75 -37 -161 -68 -169 -60 -9 8 -2 98 9 134 6 20 34 80 62 134 27 53 48 100
45 103 -3 3 -21 -9 -39 -26 -40 -37 -193 -113 -217 -108 -12 2 -18 15 -20 48
-4 55 19 93 118 197 36 38 86 94 113 125 43 52 46 59 36 82 -15 32 -21 32 -34
4 -19 -43 -160 -124 -198 -114 -38 9 -62 53 -60 110 2 81 99 206 240 313 88
66 133 107 133 122 0 7 -16 3 -39 -9 -82 -41 -171 -22 -171 37 0 36 14 56 62
89 24 16 48 33 53 37 78 61 238 182 303 229 88 63 106 89 45 62 -81 -35 -157
-54 -220 -54 l-64 0 26 49 c46 84 118 150 258 235 40 24 26 32 -19 11 -39 -19
-131 -22 -147 -6 -6 6 -2 20 11 38 40 57 150 293 165 355 l7 27 -62 -3 c-125
-6 -194 13 -567 154 -196 74 -274 92 -406 92 -201 1 -334 -42 -735 -236 -300
-146 -412 -196 -441 -196 -21 0 -85 62 -92 89 -7 28 11 61 33 61 11 0 101 34
201 75 227 95 270 106 386 103 51 -1 96 1 99 5 7 6 -28 11 -83 10 -38 0 -16
13 25 15 22 2 86 16 143 33 260 77 455 106 645 96 100 -5 102 -5 112 18 18 39
63 56 146 54 41 -1 79 2 85 5 6 4 11 23 11 43 0 85 76 153 154 139 l32 -6 1
53 c1 64 23 111 63 132 38 20 54 19 118 -5 29 -11 56 -20 61 -20 5 0 13 19 19
43 12 47 51 90 96 104 20 6 32 18 37 37 10 36 44 72 79 84 39 14 106 7 144
-16 l32 -19 13 28 c7 17 30 36 57 50 43 20 54 21 202 15 86 -4 180 -9 207 -12
43 -5 61 0 125 29 182 85 349 104 728 83 24 -1 80 4 125 11 259 42 338 46 468
18z m-286 -169 c102 -22 558 -168 640 -206 33 -15 78 -44 101 -63 55 -48 109
-154 134 -262 l21 -89 -21 -52 c-25 -61 -57 -93 -169 -168 -176 -117 -356
-193 -508 -214 -77 -11 -143 -8 -152 6 -3 5 -56 11 -117 14 -123 6 -154 17
-154 53 0 14 5 25 10 25 6 0 10 4 10 9 0 5 -34 11 -75 13 -64 3 -78 7 -103 31
-18 18 -39 27 -60 27 -43 0 -41 22 3 43 19 9 35 21 35 26 0 4 -36 8 -80 9
-121 0 -239 33 -260 72 -17 31 4 60 43 61 58 1 1 17 -143 39 -74 12 -147 26
-163 32 -50 19 -45 89 8 102 27 7 34 26 9 26 -27 0 -118 48 -152 81 -32 30
-33 32 -15 51 15 17 26 19 67 14 l49 -5 -33 24 c-19 14 -37 25 -40 25 -3 0
-13 12 -22 28 -20 35 -8 69 27 77 14 3 37 8 53 11 34 7 62 32 62 55 0 10 4 20
10 24 7 5 133 12 238 15 12 0 22 4 22 8 0 4 -43 7 -96 6 -53 -2 -94 -1 -92 1
8 8 214 46 296 54 94 10 568 7 617 -3z m-1251 -75 c54 -10 126 -19 160 -20 96
-3 104 -31 14 -51 -29 -6 -60 -18 -70 -27 -24 -21 -23 -64 2 -96 l20 -26 -20
-6 c-11 -4 -28 -18 -37 -32 -17 -26 -17 -26 24 -62 22 -20 61 -47 87 -60 40
-21 45 -26 33 -40 -22 -25 -27 -49 -17 -77 12 -29 53 -49 130 -60 30 -4 57 -8
60 -9 3 -1 29 -5 58 -9 28 -4 52 -9 52 -11 0 -2 -4 -15 -10 -29 -8 -21 -5 -31
15 -55 30 -35 150 -71 240 -71 57 0 58 -1 37 -16 -12 -8 -22 -26 -22 -39 0
-18 -7 -25 -29 -30 -17 -3 -38 -2 -49 4 -11 6 -21 9 -23 7 -2 -2 -31 -7 -64
-10 -315 -35 -604 -122 -792 -239 -34 -21 -75 -40 -90 -43 -15 -2 -44 -10 -63
-17 -19 -8 -39 -13 -45 -12 -5 1 -33 5 -62 10 -28 4 -65 16 -82 26 -46 28 -56
99 -14 99 10 0 36 9 58 20 l40 20 -35 -5 c-19 -2 -51 -7 -70 -10 -49 -8 -95
22 -109 70 -18 65 24 111 89 99 44 -9 37 12 -7 23 -32 7 -43 17 -66 61 -27 49
-28 55 -17 106 6 30 20 66 31 80 31 39 98 60 171 52 57 -5 61 -4 46 11 -13 12
-34 15 -87 14 -65 -2 -141 17 -141 34 0 22 39 66 71 80 34 16 43 16 103 3 36
-8 66 -12 66 -8 0 10 -75 40 -99 40 -31 0 -79 48 -91 88 -13 50 -13 52 10 52
11 0 20 5 20 10 0 6 -9 10 -20 10 -12 0 -20 7 -20 18 0 27 38 82 57 83 74 6
161 -17 236 -62 26 -16 49 -29 52 -29 2 0 -7 21 -20 46 -14 26 -25 53 -25 60
0 10 30 25 100 48 31 10 118 5 214 -13z m3295 -160 c10 -10 23 -20 28 -22 5
-2 55 -38 111 -79 l102 -75 -58 -7 c-31 -5 -70 -10 -87 -12 -16 -2 -73 -9
-126 -16 -53 -7 -108 -10 -122 -6 -31 7 -56 41 -67 92 -8 33 -6 36 20 46 16 5
41 25 55 44 42 55 108 71 144 35z m-1084 -292 c16 -70 123 -137 198 -122 26 5
27 4 27 -35 0 -65 39 -89 125 -79 37 4 45 1 50 -14 10 -30 53 -57 101 -65 l46
-7 -41 -24 c-22 -13 -78 -48 -123 -79 -133 -88 -223 -128 -290 -129 -54 0 -57
-1 -74 -35 -109 -208 -314 -478 -524 -691 -103 -104 -280 -251 -330 -273 -14
-6 -31 -16 -38 -23 -7 -7 -31 -13 -51 -13 l-38 0 4 83 c2 45 5 90 7 100 6 26
-8 20 -27 -12 -17 -29 -71 -61 -102 -61 -16 0 -17 8 -11 73 6 73 13 122 21
144 2 7 -15 -8 -39 -32 -46 -48 -75 -58 -77 -25 -7 111 3 198 31 273 19 48 12
62 -13 27 -25 -36 -126 -65 -141 -41 -3 4 12 54 34 110 45 115 51 146 21 110
-16 -19 -23 -22 -38 -13 -27 16 -34 67 -26 189 4 61 7 140 7 178 -1 67 0 67
25 63 14 -2 38 -5 54 -5 21 -1 27 -6 27 -24 0 -46 39 -65 149 -74 42 -3 84
-10 95 -15 10 -6 59 -10 110 -9 177 0 387 77 603 220 107 71 150 111 173 164
l17 38 29 -63 c28 -62 28 -65 26 -232 -1 -111 2 -166 8 -160 12 12 15 295 5
339 -5 17 -18 50 -31 75 -12 25 -28 74 -34 108 -12 58 -11 64 6 77 29 22 42
18 49 -16z m-4896 -138 c14 -25 82 -51 136 -51 43 0 44 -1 35 -25 -13 -35 3
-73 35 -81 33 -8 26 -15 -22 -20 -58 -7 -122 -29 -305 -105 -92 -38 -171 -69
-177 -69 -6 0 -8 7 -4 17 6 14 1 15 -38 10 -24 -3 -106 -25 -182 -47 -131 -40
-139 -41 -162 -26 -14 9 -25 20 -25 24 0 8 58 37 235 118 114 52 167 69 374
124 176 47 200 55 190 64 -5 5 -197 -44 -349 -89 -103 -31 -388 -152 -447
-190 -29 -19 -29 -41 0 -57 22 -12 22 -12 -8 -19 -88 -20 -225 5 -225 40 0 10
9 21 20 24 35 9 24 30 -12 23 -18 -4 -150 -9 -293 -12 -290 -6 -284 -9 -121
59 59 25 92 34 96 27 5 -8 32 -8 96 0 124 15 148 18 239 36 116 23 131 27 345
78 224 55 441 101 518 111 28 4 52 11 52 17 0 5 -12 7 -27 4 -16 -3 -48 -8
-73 -11 -74 -10 -183 -33 -422 -91 -312 -75 -434 -100 -566 -118 -197 -28
-197 -21 -1 44 280 92 597 161 849 184 30 3 87 8 125 12 39 3 72 8 74 10 11
10 31 2 40 -15z m3536 -241 c7 -12 -12 -12 -40 0 -18 8 -17 9 7 9 15 1 30 -3
33 -9z m-176 -12 c15 -9 28 -9 59 0 33 10 45 9 68 -3 16 -8 37 -15 46 -15 33
0 41 -36 32 -159 -15 -228 -9 -286 35 -304 l28 -12 -35 -92 c-20 -51 -33 -95
-31 -97 13 -14 73 -14 110 -2 l41 14 -7 -26 c-4 -15 -9 -82 -11 -149 -4 -122
-3 -123 19 -123 12 0 36 9 53 19 l31 19 -6 -31 c-3 -18 -6 -57 -6 -87 l0 -55
38 2 c21 1 52 12 68 24 l31 22 -3 -79 -4 -79 48 0 c26 0 47 -1 47 -2 0 -1 -25
-46 -56 -100 -147 -254 -319 -477 -534 -694 -131 -131 -200 -192 -385 -335
-71 -56 -157 -129 -190 -163 -59 -61 -128 -102 -194 -116 l-33 -7 5 38 c10 77
14 90 40 131 33 53 62 79 112 105 22 12 35 23 28 25 -22 8 -88 -35 -188 -121
-112 -96 -160 -124 -231 -132 -138 -17 -224 71 -176 179 28 63 76 113 136 140
94 43 267 169 252 184 -9 10 -183 -88 -243 -137 -59 -48 -110 -76 -120 -66 -3
2 8 11 23 19 16 8 23 17 16 21 -6 4 -37 -10 -68 -31 l-57 -38 -131 0 c-72 0
-143 3 -157 7 -23 7 -26 12 -24 42 7 65 26 117 61 162 19 25 31 50 28 55 -14
23 82 131 171 195 88 62 242 136 375 180 112 37 150 54 118 54 -8 0 -162 -49
-342 -109 l-326 -109 -20 26 c-22 27 -26 75 -10 117 25 65 92 104 575 332 110
52 204 99 209 104 24 22 -7 16 -74 -17 -133 -63 -228 -86 -380 -90 -139 -3
-228 9 -237 33 -16 42 43 116 125 156 26 13 190 77 364 142 174 65 315 122
312 126 -3 5 -16 4 -30 -1 -113 -43 -318 -79 -479 -85 -145 -4 -146 -3 -86 72
63 80 150 152 239 195 45 23 82 44 82 48 0 4 -24 1 -52 -7 -83 -21 -143 -22
-186 -3 -41 19 -98 78 -85 90 4 4 44 15 88 25 123 27 395 128 395 147 0 9
-275 1 -347 -10 -40 -7 -53 -6 -53 3 0 7 34 45 75 84 56 53 82 71 103 71 15 0
52 16 82 35 30 19 58 35 62 35 20 0 118 43 118 52 0 6 -8 7 -17 3 -158 -62
-189 -64 -48 -2 157 68 328 111 605 152 47 7 86 13 88 14 1 1 11 -4 21 -11z
m-3786 -123 c-57 -19 -120 -37 -140 -40 l-38 -5 40 15 c62 25 198 64 220 64
11 0 -26 -15 -82 -34z m2967 -89 c0 -7 -66 -46 -76 -46 -5 0 9 12 31 25 42 26
45 28 45 21z m-54 -1950 c-16 -12 -52 -35 -80 -50 -45 -24 -48 -25 -22 -4 31
24 117 78 126 78 3 0 -8 -11 -24 -24z m-664 -85 c-5 -34 -6 -64 -2 -66 20 -12
151 -27 215 -23 41 2 75 3 75 2 0 -6 -195 -114 -246 -137 -69 -30 -142 -43
-163 -28 -23 15 -17 63 17 135 30 64 104 187 110 182 1 -2 -2 -31 -6 -65z
m411 -84 c-49 -53 -68 -131 -45 -189 28 -70 155 -104 258 -69 41 13 115 61
144 91 3 3 15 13 27 24 l22 18 -20 -51 c-10 -28 -25 -60 -31 -71 -15 -24 -104
-72 -178 -95 -30 -10 -88 -33 -128 -52 -57 -27 -82 -34 -109 -30 -78 13 -139
94 -130 172 9 89 117 259 172 274 39 10 43 6 18 -22z m536 -279 c-19 -38 -61
-78 -81 -78 -11 0 -33 7 -51 16 l-31 17 74 24 c41 13 79 28 85 34 15 15 16 10
4 -13z m-172 -20 c-3 -7 -5 -2 -5 12 0 14 2 19 5 13 2 -7 2 -19 0 -25z"/>
<path d="M12393 11319 c-80 -16 -122 -81 -123 -184 0 -72 18 -105 58 -105 15
0 35 -9 45 -20 9 -11 28 -20 41 -20 25 0 127 55 164 89 29 26 29 78 -1 151
-35 87 -83 110 -184 89z m113 -24 c17 -13 16 -14 -15 -5 -45 13 -113 -17 -139
-59 -18 -30 -22 -85 -8 -129 10 -29 78 -54 130 -47 l41 6 -37 -25 c-38 -27
-82 -34 -93 -16 -3 6 3 10 15 10 12 0 18 4 15 10 -3 5 -29 9 -56 8 -66 -3 -75
11 -69 112 2 33 18 80 38 108 24 35 143 53 178 27z m33 -50 c27 -26 40 -100
23 -132 -25 -45 -151 -54 -192 -13 -22 22 -22 99 1 126 46 56 120 65 168 19z"/>
</g>
</svg>
