<?xml version="1.0" encoding="utf-8"?>
<!-- Generator: Adobe Illustrator 25.1.0, SVG Export Plug-In . SVG Version: 6.00 Build 0)  -->
<svg version="1.1" id="Layer_1" xmlns="http://www.w3.org/2000/svg" xmlns:xlink="http://www.w3.org/1999/xlink" x="0px" y="0px"
	 viewBox="0 0 792 612" style="enable-background:new 0 0 792 612;" xml:space="preserve">
<style type="text/css">
	.st0{clip-path:url(#SVGID_2_);fill:#FFFFFF;}
	
		.st1{clip-path:url(#SVGID_2_);fill:none;stroke:#FFFFFF;stroke-width:1.07;stroke-linecap:round;stroke-linejoin:round;stroke-miterlimit:10;}
	.st2{clip-path:url(#SVGID_4_);fill:none;stroke:#832424;stroke-width:1.07;stroke-linejoin:round;stroke-miterlimit:10;}
	.st3{clip-path:url(#SVGID_4_);fill:#F8766D;}
	
		.st4{clip-path:url(#SVGID_4_);fill:none;stroke:#F8766D;stroke-width:0.71;stroke-linecap:round;stroke-linejoin:round;stroke-miterlimit:10;}
	.st5{clip-path:url(#SVGID_4_);fill:#00BFC4;}
	
		.st6{clip-path:url(#SVGID_4_);fill:none;stroke:#00BFC4;stroke-width:0.71;stroke-linecap:round;stroke-linejoin:round;stroke-miterlimit:10;}
	.st7{clip-path:url(#SVGID_4_);fill:none;stroke:#F8766D;stroke-width:1.07;stroke-linejoin:round;stroke-miterlimit:10;}
	.st8{clip-path:url(#SVGID_4_);fill:none;stroke:#00BFC4;stroke-width:1.07;stroke-linejoin:round;stroke-miterlimit:10;}
	.st9{clip-path:url(#SVGID_4_);}
	.st10{fill:#8B0000;}
	.st11{font-family:'Helvetica';}
	.st12{font-size:8.9944px;}
	.st13{font-size:8.9957px;}
	.st14{font-size:9.0032px;}
	.st15{font-size:8.9985px;}
	
		.st16{clip-path:url(#SVGID_4_);fill:none;stroke:#000000;stroke-width:1.07;stroke-linecap:round;stroke-linejoin:round;stroke-miterlimit:10;}
	.st17{fill:#4D4D4D;}
	.st18{font-family:'Helvetica-Bold';}
	.st19{font-size:24px;}
	.st20{fill:none;stroke:#333333;stroke-width:1.07;stroke-linejoin:round;stroke-miterlimit:10;}
	.st21{letter-spacing:-1;}
	.st22{fill:#FFFFFF;}
	.st23{fill:#F2F2F2;}
	.st24{fill:none;stroke:#FFFFFF;stroke-width:1.07;stroke-linecap:round;stroke-linejoin:round;stroke-miterlimit:10;}
	.st25{fill:#F8766D;}
	.st26{fill:none;stroke:#F8766D;stroke-width:0.71;stroke-linecap:round;stroke-linejoin:round;stroke-miterlimit:10;}
	.st27{fill:none;stroke:#F8766D;stroke-width:1.07;stroke-linejoin:round;stroke-miterlimit:10;}
	.st28{fill:#00BFC4;}
	.st29{fill:none;stroke:#00BFC4;stroke-width:0.71;stroke-linecap:round;stroke-linejoin:round;stroke-miterlimit:10;}
	.st30{fill:none;stroke:#00BFC4;stroke-width:1.07;stroke-linejoin:round;stroke-miterlimit:10;}
	.st31{font-size:9px;}
</style>
<g>
	<defs>
		<rect id="SVGID_1_" x="105.8" width="580.4" height="612"/>
	</defs>
	<clipPath id="SVGID_2_">
		<use xlink:href="#SVGID_1_"  style="overflow:visible;"/>
	</clipPath>
	<rect x="105.8" class="st0" width="580.4" height="612"/>
	<rect x="105.8" class="st1" width="580.4" height="612"/>
</g>
<g>
	<defs>
		<rect id="SVGID_3_" x="166.07" y="44.67" width="514.66" height="514.66"/>
	</defs>
	<clipPath id="SVGID_4_">
		<use xlink:href="#SVGID_3_"  style="overflow:visible;"/>
	</clipPath>
	<line class="st2" x1="423.39" y1="302.01" x2="366.38" y2="177.37"/>
	<polyline class="st2" points="371.25,180.83 366.38,177.37 365.81,183.32 	"/>
	<line class="st2" x1="423.39" y1="302.01" x2="314.11" y2="333.23"/>
	<polyline class="st2" points="318.26,328.93 314.11,333.23 319.9,334.68 	"/>
	<line class="st2" x1="423.39" y1="302.01" x2="309.76" y2="339.04"/>
	<polyline class="st2" points="313.76,334.6 309.76,339.04 315.61,340.28 	"/>
	<line class="st2" x1="423.39" y1="302.01" x2="314.83" y2="297.27"/>
	<polyline class="st2" points="320.14,294.51 314.83,297.27 319.88,300.48 	"/>
	<path class="st3" d="M227.74,342.72c0-1.07,0.88-1.95,1.96-1.95c1.07,0,1.95,0.88,1.95,1.95c0,1.08-0.88,1.96-1.95,1.96
		C228.62,344.68,227.74,343.8,227.74,342.72"/>
	<path class="st4" d="M227.74,342.72c0-1.07,0.88-1.95,1.96-1.95c1.07,0,1.95,0.88,1.95,1.95c0,1.08-0.88,1.96-1.95,1.96
		C228.62,344.68,227.74,343.8,227.74,342.72"/>
	<path class="st3" d="M352.97,201.75c0-1.07,0.88-1.95,1.96-1.95c1.07,0,1.95,0.88,1.95,1.95c0,1.08-0.88,1.96-1.95,1.96
		C353.85,203.71,352.97,202.83,352.97,201.75"/>
	<path class="st4" d="M352.97,201.75c0-1.07,0.88-1.95,1.96-1.95c1.07,0,1.95,0.88,1.95,1.95c0,1.08-0.88,1.96-1.95,1.96
		C353.85,203.71,352.97,202.83,352.97,201.75"/>
	<path class="st3" d="M283.78,218.09c0-1.08,0.88-1.95,1.96-1.95c1.07,0,1.95,0.87,1.95,1.95c0,1.08-0.88,1.95-1.95,1.95
		C284.66,220.04,283.78,219.17,283.78,218.09"/>
	<path class="st4" d="M283.78,218.09c0-1.08,0.88-1.95,1.96-1.95c1.07,0,1.95,0.87,1.95,1.95c0,1.08-0.88,1.95-1.95,1.95
		C284.66,220.04,283.78,219.17,283.78,218.09"/>
	<path class="st3" d="M378.38,373.11c0-1.08,0.87-1.96,1.95-1.96c1.08,0,1.95,0.88,1.95,1.96c0,1.07-0.87,1.95-1.95,1.95
		C379.25,375.06,378.38,374.18,378.38,373.11"/>
	<path class="st4" d="M378.38,373.11c0-1.08,0.87-1.96,1.95-1.96c1.08,0,1.95,0.88,1.95,1.96c0,1.07-0.87,1.95-1.95,1.95
		C379.25,375.06,378.38,374.18,378.38,373.11"/>
	<path class="st5" d="M311.68,326.96c0-1.08,0.87-1.96,1.95-1.96c1.08,0,1.95,0.88,1.95,1.96c0,1.07-0.87,1.95-1.95,1.95
		C312.55,328.91,311.68,328.03,311.68,326.96"/>
	<path class="st6" d="M311.68,326.96c0-1.08,0.87-1.96,1.95-1.96c1.08,0,1.95,0.88,1.95,1.96c0,1.07-0.87,1.95-1.95,1.95
		C312.55,328.91,311.68,328.03,311.68,326.96"/>
	<path class="st5" d="M407.9,341.53c0-1.07,0.88-1.95,1.95-1.95c1.08,0,1.96,0.88,1.96,1.95c0,1.08-0.88,1.96-1.96,1.96
		C408.78,343.49,407.9,342.61,407.9,341.53"/>
	<path class="st6" d="M407.9,341.53c0-1.07,0.88-1.95,1.95-1.95c1.08,0,1.96,0.88,1.96,1.95c0,1.08-0.88,1.96-1.96,1.96
		C408.78,343.49,407.9,342.61,407.9,341.53"/>
	<path class="st5" d="M526.13,413.5c0-1.08,0.88-1.96,1.96-1.96c1.07,0,1.95,0.88,1.95,1.96c0,1.07-0.88,1.95-1.95,1.95
		C527.01,415.45,526.13,414.57,526.13,413.5"/>
	<path class="st6" d="M526.13,413.5c0-1.08,0.88-1.96,1.96-1.96c1.07,0,1.95,0.88,1.95,1.96c0,1.07-0.88,1.95-1.95,1.95
		C527.01,415.45,526.13,414.57,526.13,413.5"/>
	<path class="st5" d="M387.45,357.09c0-1.08,0.88-1.96,1.96-1.96c1.07,0,1.95,0.88,1.95,1.96c0,1.07-0.88,1.95-1.95,1.95
		C388.33,359.04,387.45,358.16,387.45,357.09"/>
	<path class="st6" d="M387.45,357.09c0-1.08,0.88-1.96,1.96-1.96c1.07,0,1.95,0.88,1.95,1.96c0,1.07-0.88,1.95-1.95,1.95
		C388.33,359.04,387.45,358.16,387.45,357.09"/>
	<path class="st5" d="M348.15,242.63c0-1.08,0.88-1.95,1.95-1.95c1.08,0,1.96,0.87,1.96,1.95c0,1.08-0.88,1.95-1.96,1.95
		C349.03,244.58,348.15,243.71,348.15,242.63"/>
	<path class="st6" d="M348.15,242.63c0-1.08,0.88-1.95,1.95-1.95c1.08,0,1.96,0.87,1.96,1.95c0,1.08-0.88,1.95-1.96,1.95
		C349.03,244.58,348.15,243.71,348.15,242.63"/>
	<path class="st5" d="M410.4,188.64c0-1.07,0.88-1.95,1.96-1.95c1.07,0,1.95,0.88,1.95,1.95c0,1.08-0.88,1.96-1.95,1.96
		C411.28,190.6,410.4,189.72,410.4,188.64"/>
	<path class="st6" d="M410.4,188.64c0-1.07,0.88-1.95,1.96-1.95c1.07,0,1.95,0.88,1.95,1.95c0,1.08-0.88,1.96-1.95,1.96
		C411.28,190.6,410.4,189.72,410.4,188.64"/>
	<path class="st5" d="M288.08,210.8c0-1.07,0.88-1.95,1.96-1.95c1.07,0,1.95,0.88,1.95,1.95c0,1.08-0.88,1.96-1.95,1.96
		C288.96,212.76,288.08,211.88,288.08,210.8"/>
	<path class="st6" d="M288.08,210.8c0-1.07,0.88-1.95,1.96-1.95c1.07,0,1.95,0.88,1.95,1.95c0,1.08-0.88,1.96-1.95,1.96
		C288.96,212.76,288.08,211.88,288.08,210.8"/>
	<path class="st5" d="M409.27,219.58c0-1.07,0.87-1.95,1.95-1.95s1.95,0.88,1.95,1.95c0,1.08-0.87,1.96-1.95,1.96
		S409.27,220.66,409.27,219.58"/>
	<path class="st6" d="M409.27,219.58c0-1.07,0.87-1.95,1.95-1.95s1.95,0.88,1.95,1.95c0,1.08-0.87,1.96-1.95,1.96
		S409.27,220.66,409.27,219.58"/>
	<path class="st5" d="M497.9,276.8c0-1.07,0.88-1.95,1.95-1.95c1.08,0,1.96,0.88,1.96,1.95c0,1.08-0.88,1.96-1.96,1.96
		C498.78,278.76,497.9,277.88,497.9,276.8"/>
	<path class="st6" d="M497.9,276.8c0-1.07,0.88-1.95,1.95-1.95c1.08,0,1.96,0.88,1.96,1.95c0,1.08-0.88,1.96-1.96,1.96
		C498.78,278.76,497.9,277.88,497.9,276.8"/>
	<path class="st5" d="M471.09,258.75c0-1.07,0.88-1.95,1.95-1.95c1.08,0,1.96,0.88,1.96,1.95c0,1.08-0.88,1.96-1.96,1.96
		C471.97,260.71,471.09,259.83,471.09,258.75"/>
	<path class="st6" d="M471.09,258.75c0-1.07,0.88-1.95,1.95-1.95c1.08,0,1.96,0.88,1.96,1.95c0,1.08-0.88,1.96-1.96,1.96
		C471.97,260.71,471.09,259.83,471.09,258.75"/>
	<path class="st5" d="M454.27,280.81c0-1.07,0.88-1.95,1.95-1.95c1.08,0,1.96,0.88,1.96,1.95c0,1.08-0.88,1.96-1.96,1.96
		C455.15,282.77,454.27,281.89,454.27,280.81"/>
	<path class="st6" d="M454.27,280.81c0-1.07,0.88-1.95,1.95-1.95c1.08,0,1.96,0.88,1.96,1.95c0,1.08-0.88,1.96-1.96,1.96
		C455.15,282.77,454.27,281.89,454.27,280.81"/>
	<path class="st3" d="M208.69,318c0-1.08,0.88-1.95,1.95-1.95c1.08,0,1.96,0.87,1.96,1.95s-0.88,1.95-1.96,1.95
		C209.57,319.95,208.69,319.08,208.69,318"/>
	<path class="st4" d="M208.69,318c0-1.08,0.88-1.95,1.95-1.95c1.08,0,1.96,0.87,1.96,1.95s-0.88,1.95-1.96,1.95
		C209.57,319.95,208.69,319.08,208.69,318"/>
	<path class="st3" d="M399.97,356.72c0-1.07,0.88-1.95,1.96-1.95c1.07,0,1.95,0.88,1.95,1.95c0,1.08-0.88,1.96-1.95,1.96
		C400.85,358.68,399.97,357.8,399.97,356.72"/>
	<path class="st4" d="M399.97,356.72c0-1.07,0.88-1.95,1.96-1.95c1.07,0,1.95,0.88,1.95,1.95c0,1.08-0.88,1.96-1.95,1.96
		C400.85,358.68,399.97,357.8,399.97,356.72"/>
	<path class="st3" d="M282.94,305.12c0-1.08,0.88-1.96,1.96-1.96c1.07,0,1.95,0.88,1.95,1.96c0,1.07-0.88,1.95-1.95,1.95
		C283.82,307.07,282.94,306.19,282.94,305.12"/>
	<path class="st4" d="M282.94,305.12c0-1.08,0.88-1.96,1.96-1.96c1.07,0,1.95,0.88,1.95,1.96c0,1.07-0.88,1.95-1.95,1.95
		C283.82,307.07,282.94,306.19,282.94,305.12"/>
	<path class="st3" d="M453.93,266.08c0-1.07,0.88-1.95,1.96-1.95c1.07,0,1.95,0.88,1.95,1.95c0,1.08-0.88,1.96-1.95,1.96
		C454.81,268.04,453.93,267.16,453.93,266.08"/>
	<path class="st4" d="M453.93,266.08c0-1.07,0.88-1.95,1.96-1.95c1.07,0,1.95,0.88,1.95,1.95c0,1.08-0.88,1.96-1.95,1.96
		C454.81,268.04,453.93,267.16,453.93,266.08"/>
	<path class="st3" d="M304.11,309.63c0-1.07,0.88-1.95,1.96-1.95c1.07,0,1.95,0.88,1.95,1.95c0,1.08-0.88,1.96-1.95,1.96
		C304.99,311.59,304.11,310.71,304.11,309.63"/>
	<path class="st4" d="M304.11,309.63c0-1.07,0.88-1.95,1.96-1.95c1.07,0,1.95,0.88,1.95,1.95c0,1.08-0.88,1.96-1.95,1.96
		C304.99,311.59,304.11,310.71,304.11,309.63"/>
	<path class="st3" d="M305.37,376.89c0-1.07,0.88-1.95,1.96-1.95c1.07,0,1.95,0.88,1.95,1.95c0,1.08-0.88,1.96-1.95,1.96
		C306.25,378.85,305.37,377.97,305.37,376.89"/>
	<path class="st4" d="M305.37,376.89c0-1.07,0.88-1.95,1.96-1.95c1.07,0,1.95,0.88,1.95,1.95c0,1.08-0.88,1.96-1.95,1.96
		C306.25,378.85,305.37,377.97,305.37,376.89"/>
	<path class="st3" d="M371.27,456.79c0-1.07,0.88-1.95,1.96-1.95c1.07,0,1.95,0.88,1.95,1.95c0,1.08-0.88,1.96-1.95,1.96
		C372.15,458.75,371.27,457.87,371.27,456.79"/>
	<path class="st4" d="M371.27,456.79c0-1.07,0.88-1.95,1.96-1.95c1.07,0,1.95,0.88,1.95,1.95c0,1.08-0.88,1.96-1.95,1.96
		C372.15,458.75,371.27,457.87,371.27,456.79"/>
	<path class="st3" d="M303.55,324.02c0-1.08,0.87-1.96,1.95-1.96c1.07,0,1.95,0.88,1.95,1.96c0,1.07-0.88,1.95-1.95,1.95
		C304.42,325.97,303.55,325.09,303.55,324.02"/>
	<path class="st4" d="M303.55,324.02c0-1.08,0.87-1.96,1.95-1.96c1.07,0,1.95,0.88,1.95,1.96c0,1.07-0.88,1.95-1.95,1.95
		C304.42,325.97,303.55,325.09,303.55,324.02"/>
	<path class="st3" d="M306.41,385.95c0-1.08,0.88-1.96,1.96-1.96c1.07,0,1.95,0.88,1.95,1.96c0,1.07-0.88,1.95-1.95,1.95
		C307.29,387.9,306.41,387.02,306.41,385.95"/>
	<path class="st4" d="M306.41,385.95c0-1.08,0.88-1.96,1.96-1.96c1.07,0,1.95,0.88,1.95,1.96c0,1.07-0.88,1.95-1.95,1.95
		C307.29,387.9,306.41,387.02,306.41,385.95"/>
	<path class="st3" d="M365.4,430.73c0-1.08,0.88-1.96,1.96-1.96c1.07,0,1.95,0.88,1.95,1.96c0,1.07-0.88,1.95-1.95,1.95
		C366.28,432.68,365.4,431.8,365.4,430.73"/>
	<path class="st4" d="M365.4,430.73c0-1.08,0.88-1.96,1.96-1.96c1.07,0,1.95,0.88,1.95,1.96c0,1.07-0.88,1.95-1.95,1.95
		C366.28,432.68,365.4,431.8,365.4,430.73"/>
	<path class="st3" d="M202.99,408.93c0-1.08,0.88-1.96,1.96-1.96c1.07,0,1.95,0.88,1.95,1.96c0,1.07-0.88,1.95-1.95,1.95
		C203.87,410.88,202.99,410,202.99,408.93"/>
	<path class="st4" d="M202.99,408.93c0-1.08,0.88-1.96,1.96-1.96c1.07,0,1.95,0.88,1.95,1.96c0,1.07-0.88,1.95-1.95,1.95
		C203.87,410.88,202.99,410,202.99,408.93"/>
	<path class="st3" d="M301.45,437.64c0-1.07,0.88-1.95,1.95-1.95c1.08,0,1.96,0.88,1.96,1.95c0,1.08-0.88,1.96-1.96,1.96
		C302.33,439.6,301.45,438.72,301.45,437.64"/>
	<path class="st4" d="M301.45,437.64c0-1.07,0.88-1.95,1.95-1.95c1.08,0,1.96,0.88,1.96,1.95c0,1.08-0.88,1.96-1.96,1.96
		C302.33,439.6,301.45,438.72,301.45,437.64"/>
	<path class="st5" d="M466.62,263.19c0-1.07,0.88-1.95,1.96-1.95c1.07,0,1.95,0.88,1.95,1.95c0,1.08-0.88,1.96-1.95,1.96
		C467.5,265.15,466.62,264.27,466.62,263.19"/>
	<path class="st6" d="M466.62,263.19c0-1.07,0.88-1.95,1.96-1.95c1.07,0,1.95,0.88,1.95,1.95c0,1.08-0.88,1.96-1.95,1.96
		C467.5,265.15,466.62,264.27,466.62,263.19"/>
	<path class="st5" d="M481.5,248.3c0-1.07,0.88-1.95,1.95-1.95c1.08,0,1.96,0.88,1.96,1.95c0,1.08-0.88,1.96-1.96,1.96
		C482.38,250.26,481.5,249.38,481.5,248.3"/>
	<path class="st6" d="M481.5,248.3c0-1.07,0.88-1.95,1.95-1.95c1.08,0,1.96,0.88,1.96,1.95c0,1.08-0.88,1.96-1.96,1.96
		C482.38,250.26,481.5,249.38,481.5,248.3"/>
	<path class="st5" d="M499.55,298.64c0-1.07,0.88-1.95,1.96-1.95c1.07,0,1.95,0.88,1.95,1.95c0,1.08-0.88,1.96-1.95,1.96
		C500.43,300.6,499.55,299.72,499.55,298.64"/>
	<path class="st6" d="M499.55,298.64c0-1.07,0.88-1.95,1.96-1.95c1.07,0,1.95,0.88,1.95,1.95c0,1.08-0.88,1.96-1.95,1.96
		C500.43,300.6,499.55,299.72,499.55,298.64"/>
	<path class="st5" d="M537.1,396.71c0-1.08,0.88-1.96,1.96-1.96c1.07,0,1.95,0.88,1.95,1.96c0,1.07-0.88,1.95-1.95,1.95
		C537.98,398.66,537.1,397.78,537.1,396.71"/>
	<path class="st6" d="M537.1,396.71c0-1.08,0.88-1.96,1.96-1.96c1.07,0,1.95,0.88,1.95,1.96c0,1.07-0.88,1.95-1.95,1.95
		C537.98,398.66,537.1,397.78,537.1,396.71"/>
	<path class="st5" d="M447.2,184.37c0-1.07,0.88-1.95,1.95-1.95c1.08,0,1.96,0.88,1.96,1.95c0,1.08-0.88,1.96-1.96,1.96
		C448.08,186.33,447.2,185.45,447.2,184.37"/>
	<path class="st6" d="M447.2,184.37c0-1.07,0.88-1.95,1.95-1.95c1.08,0,1.96,0.88,1.96,1.95c0,1.08-0.88,1.96-1.96,1.96
		C448.08,186.33,447.2,185.45,447.2,184.37"/>
	<path class="st5" d="M590.37,372.07c0-1.08,0.88-1.96,1.95-1.96c1.08,0,1.96,0.88,1.96,1.96c0,1.07-0.88,1.95-1.96,1.95
		C591.25,374.02,590.37,373.14,590.37,372.07"/>
	<path class="st6" d="M590.37,372.07c0-1.08,0.88-1.96,1.95-1.96c1.08,0,1.96,0.88,1.96,1.96c0,1.07-0.88,1.95-1.96,1.95
		C591.25,374.02,590.37,373.14,590.37,372.07"/>
	<path class="st5" d="M640.01,302.52c0-1.07,0.88-1.95,1.96-1.95c1.07,0,1.95,0.88,1.95,1.95c0,1.08-0.88,1.96-1.95,1.96
		C640.89,304.48,640.01,303.6,640.01,302.52"/>
	<path class="st6" d="M640.01,302.52c0-1.07,0.88-1.95,1.96-1.95c1.07,0,1.95,0.88,1.95,1.95c0,1.08-0.88,1.96-1.95,1.96
		C640.89,304.48,640.01,303.6,640.01,302.52"/>
	<path class="st5" d="M488.32,304.03c0-1.08,0.88-1.96,1.95-1.96c1.08,0,1.96,0.88,1.96,1.96c0,1.07-0.88,1.95-1.96,1.95
		C489.2,305.98,488.32,305.1,488.32,304.03"/>
	<path class="st6" d="M488.32,304.03c0-1.08,0.88-1.96,1.95-1.96c1.08,0,1.96,0.88,1.96,1.96c0,1.07-0.88,1.95-1.96,1.95
		C489.2,305.98,488.32,305.1,488.32,304.03"/>
	<path class="st5" d="M511.86,306.75c0-1.07,0.88-1.95,1.96-1.95c1.07,0,1.95,0.88,1.95,1.95c0,1.08-0.88,1.96-1.95,1.96
		C512.74,308.71,511.86,307.83,511.86,306.75"/>
	<path class="st6" d="M511.86,306.75c0-1.07,0.88-1.95,1.96-1.95c1.07,0,1.95,0.88,1.95,1.95c0,1.08-0.88,1.96-1.95,1.96
		C512.74,308.71,511.86,307.83,511.86,306.75"/>
	<path class="st5" d="M415.09,250.64c0-1.08,0.88-1.96,1.96-1.96c1.07,0,1.95,0.88,1.95,1.96c0,1.07-0.88,1.95-1.95,1.95
		C415.97,252.59,415.09,251.71,415.09,250.64"/>
	<path class="st6" d="M415.09,250.64c0-1.08,0.88-1.96,1.96-1.96c1.07,0,1.95,0.88,1.95,1.96c0,1.07-0.88,1.95-1.95,1.95
		C415.97,252.59,415.09,251.71,415.09,250.64"/>
	<path class="st5" d="M648.81,374.14c0-1.07,0.88-1.95,1.95-1.95c1.08,0,1.96,0.88,1.96,1.95c0,1.08-0.88,1.96-1.96,1.96
		C649.69,376.1,648.81,375.22,648.81,374.14"/>
	<path class="st6" d="M648.81,374.14c0-1.07,0.88-1.95,1.95-1.95c1.08,0,1.96,0.88,1.96,1.95c0,1.08-0.88,1.96-1.96,1.96
		C649.69,376.1,648.81,375.22,648.81,374.14"/>
	<path class="st5" d="M561.19,344.36c0-1.08,0.88-1.96,1.96-1.96c1.07,0,1.95,0.88,1.95,1.96c0,1.07-0.88,1.95-1.95,1.95
		C562.07,346.31,561.19,345.43,561.19,344.36"/>
	<path class="st6" d="M561.19,344.36c0-1.08,0.88-1.96,1.96-1.96c1.07,0,1.95,0.88,1.95,1.96c0,1.07-0.88,1.95-1.95,1.95
		C562.07,346.31,561.19,345.43,561.19,344.36"/>
	<path class="st5" d="M351.97,170.39c0-1.07,0.88-1.95,1.95-1.95c1.08,0,1.96,0.88,1.96,1.95c0,1.08-0.88,1.96-1.96,1.96
		C352.85,172.35,351.97,171.47,351.97,170.39"/>
	<path class="st6" d="M351.97,170.39c0-1.07,0.88-1.95,1.95-1.95c1.08,0,1.96,0.88,1.96,1.95c0,1.08-0.88,1.96-1.96,1.96
		C352.85,172.35,351.97,171.47,351.97,170.39"/>
	<path class="st5" d="M351.26,200.95c0-1.08,0.88-1.96,1.96-1.96c1.07,0,1.95,0.88,1.95,1.96c0,1.07-0.88,1.95-1.95,1.95
		C352.14,202.9,351.26,202.02,351.26,200.95"/>
	<path class="st6" d="M351.26,200.95c0-1.08,0.88-1.96,1.96-1.96c1.07,0,1.95,0.88,1.95,1.96c0,1.07-0.88,1.95-1.95,1.95
		C352.14,202.9,351.26,202.02,351.26,200.95"/>
	<path class="st5" d="M518.13,278.24c0-1.08,0.88-1.96,1.95-1.96c1.08,0,1.96,0.88,1.96,1.96c0,1.07-0.88,1.95-1.96,1.95
		C519.01,280.19,518.13,279.31,518.13,278.24"/>
	<path class="st6" d="M518.13,278.24c0-1.08,0.88-1.96,1.95-1.96c1.08,0,1.96,0.88,1.96,1.96c0,1.07-0.88,1.95-1.96,1.95
		C519.01,280.19,518.13,279.31,518.13,278.24"/>
	<path class="st5" d="M367.15,226.54c0-1.08,0.88-1.96,1.95-1.96c1.08,0,1.96,0.88,1.96,1.96c0,1.07-0.88,1.95-1.96,1.95
		C368.03,228.49,367.15,227.61,367.15,226.54"/>
	<path class="st6" d="M367.15,226.54c0-1.08,0.88-1.96,1.95-1.96c1.08,0,1.96,0.88,1.96,1.96c0,1.07-0.88,1.95-1.96,1.95
		C368.03,228.49,367.15,227.61,367.15,226.54"/>
	<path class="st5" d="M480.66,227.64c0-1.08,0.88-1.96,1.96-1.96c1.07,0,1.95,0.88,1.95,1.96c0,1.07-0.88,1.95-1.95,1.95
		C481.54,229.59,480.66,228.71,480.66,227.64"/>
	<path class="st6" d="M480.66,227.64c0-1.08,0.88-1.96,1.96-1.96c1.07,0,1.95,0.88,1.95,1.96c0,1.07-0.88,1.95-1.95,1.95
		C481.54,229.59,480.66,228.71,480.66,227.64"/>
	<path class="st5" d="M536.15,202.15c0-1.07,0.88-1.95,1.96-1.95c1.07,0,1.95,0.88,1.95,1.95c0,1.08-0.88,1.96-1.95,1.96
		C537.03,204.11,536.15,203.23,536.15,202.15"/>
	<path class="st6" d="M536.15,202.15c0-1.07,0.88-1.95,1.96-1.95c1.07,0,1.95,0.88,1.95,1.95c0,1.08-0.88,1.96-1.95,1.96
		C537.03,204.11,536.15,203.23,536.15,202.15"/>
	<path class="st5" d="M456.48,275.26c0-1.08,0.88-1.96,1.95-1.96c1.08,0,1.96,0.88,1.96,1.96c0,1.07-0.88,1.95-1.96,1.95
		C457.36,277.21,456.48,276.33,456.48,275.26"/>
	<path class="st6" d="M456.48,275.26c0-1.08,0.88-1.96,1.95-1.96c1.08,0,1.96,0.88,1.96,1.96c0,1.07-0.88,1.95-1.96,1.95
		C457.36,277.21,456.48,276.33,456.48,275.26"/>
	<path class="st5" d="M469.13,282.34c0-1.07,0.88-1.95,1.96-1.95c1.07,0,1.95,0.88,1.95,1.95c0,1.08-0.88,1.96-1.95,1.96
		C470.01,284.3,469.13,283.42,469.13,282.34"/>
	<path class="st6" d="M469.13,282.34c0-1.07,0.88-1.95,1.96-1.95c1.07,0,1.95,0.88,1.95,1.95c0,1.08-0.88,1.96-1.95,1.96
		C470.01,284.3,469.13,283.42,469.13,282.34"/>
	<path class="st5" d="M507.48,182.77c0-1.08,0.88-1.96,1.96-1.96c1.07,0,1.95,0.88,1.95,1.96c0,1.07-0.88,1.95-1.95,1.95
		C508.36,184.72,507.48,183.84,507.48,182.77"/>
	<path class="st6" d="M507.48,182.77c0-1.08,0.88-1.96,1.96-1.96c1.07,0,1.95,0.88,1.95,1.96c0,1.07-0.88,1.95-1.95,1.95
		C508.36,184.72,507.48,183.84,507.48,182.77"/>
	<path class="st5" d="M362.31,333.79c0-1.08,0.88-1.96,1.96-1.96c1.07,0,1.95,0.88,1.95,1.96c0,1.07-0.88,1.95-1.95,1.95
		C363.19,335.74,362.31,334.86,362.31,333.79"/>
	<path class="st6" d="M362.31,333.79c0-1.08,0.88-1.96,1.96-1.96c1.07,0,1.95,0.88,1.95,1.96c0,1.07-0.88,1.95-1.95,1.95
		C363.19,335.74,362.31,334.86,362.31,333.79"/>
	<path class="st5" d="M616.64,381.31c0-1.08,0.88-1.96,1.95-1.96c1.08,0,1.96,0.88,1.96,1.96c0,1.07-0.88,1.95-1.96,1.95
		C617.52,383.26,616.64,382.38,616.64,381.31"/>
	<path class="st6" d="M616.64,381.31c0-1.08,0.88-1.96,1.95-1.96c1.08,0,1.96,0.88,1.96,1.96c0,1.07-0.88,1.95-1.96,1.95
		C617.52,383.26,616.64,382.38,616.64,381.31"/>
	<path class="st5" d="M627.15,365.93c0-1.07,0.87-1.95,1.95-1.95c1.08,0,1.95,0.88,1.95,1.95c0,1.08-0.87,1.96-1.95,1.96
		C628.02,367.89,627.15,367.01,627.15,365.93"/>
	<path class="st6" d="M627.15,365.93c0-1.07,0.87-1.95,1.95-1.95c1.08,0,1.95,0.88,1.95,1.95c0,1.08-0.87,1.96-1.95,1.96
		C628.02,367.89,627.15,367.01,627.15,365.93"/>
	<polyline class="st7" points="213.11,349.1 213.97,363.41 216.53,377.41 220.74,390.87 226.55,403.56 233.84,415.29 242.52,425.86 
		252.42,435.09 263.39,442.84 275.25,448.97 287.81,453.38 300.85,456.01 314.17,456.8 327.54,455.75 340.75,452.88 353.57,448.23 
		365.81,441.87 377.25,433.91 387.71,424.49 397.01,413.75 405.01,401.88 411.58,389.06 416.6,375.52 419.99,361.46 421.7,347.12 
		421.7,332.75 419.99,318.56 416.6,304.8 411.58,291.7 405.01,279.46 397.01,268.29 387.71,258.37 377.25,249.86 365.81,242.91 
		353.57,237.63 340.75,234.1 327.54,232.39 314.17,232.51 300.85,234.48 287.81,238.25 275.25,243.77 263.39,250.94 252.42,259.65 
		242.52,269.75 233.84,281.08 226.55,293.45 220.74,306.65 216.53,320.49 213.97,334.71 213.11,349.1 213.97,334.71 216.53,320.49 
		220.74,306.65 226.55,293.45 233.84,281.08 242.52,269.75 252.42,259.65 263.39,250.94 275.25,243.77 287.81,238.25 300.85,234.48 
		314.17,232.51 327.54,232.39 340.75,234.1 353.57,237.63 365.81,242.91 377.25,249.86 387.71,258.37 397.01,268.29 405.01,279.46 
		411.58,291.7 416.6,304.8 419.99,318.56 421.7,332.75 421.7,347.12 419.99,361.46 416.6,375.52 411.58,389.06 405.01,401.88 
		397.01,413.75 387.71,424.49 377.25,433.91 365.81,441.87 353.57,448.23 340.75,452.88 327.54,455.75 314.17,456.8 300.85,456.01 
		287.81,453.38 275.25,448.97 263.39,442.84 252.42,435.09 242.52,425.86 233.84,415.29 226.55,403.56 220.74,390.87 216.53,377.41 
		213.97,363.41 213.11,349.1 	"/>
	<polyline class="st8" points="331.25,231.04 332.4,242.78 335.85,255.19 341.52,268.04 349.33,281.13 359.16,294.24 370.83,307.17 
		384.17,319.68 398.94,331.59 414.9,342.7 431.81,352.82 449.36,361.78 467.29,369.44 485.29,375.68 503.07,380.39 520.34,383.49 
		536.8,384.94 552.21,384.7 566.29,382.79 578.82,379.23 589.59,374.09 598.43,367.44 605.18,359.4 609.75,350.09 612.05,339.68 
		612.05,328.33 609.75,316.23 605.18,303.58 598.43,290.58 589.59,277.45 578.82,264.41 566.29,251.66 552.21,239.42 536.8,227.89 
		520.34,217.26 503.07,207.7 485.29,199.37 467.29,192.4 449.36,186.92 431.81,183.01 414.9,180.73 398.94,180.12 384.17,181.2 
		370.83,183.94 359.16,188.3 349.33,194.21 341.52,201.57 335.85,210.26 332.4,220.13 331.25,231.04 332.4,220.13 335.85,210.26 
		341.52,201.57 349.33,194.21 359.16,188.3 370.83,183.94 384.17,181.2 398.94,180.12 414.9,180.73 431.81,183.01 449.36,186.92 
		467.29,192.4 485.29,199.37 503.07,207.7 520.34,217.26 536.8,227.89 552.21,239.42 566.29,251.66 578.82,264.41 589.59,277.45 
		598.43,290.58 605.18,303.58 609.75,316.23 612.05,328.33 612.05,339.68 609.75,350.09 605.18,359.4 598.43,367.44 589.59,374.09 
		578.82,379.23 566.29,382.79 552.21,384.7 536.8,384.94 520.34,383.49 503.07,380.39 485.29,375.68 467.29,369.44 449.36,361.78 
		431.81,352.82 414.9,342.7 398.94,331.59 384.17,319.68 370.83,307.17 359.16,294.24 349.33,281.13 341.52,268.04 335.85,255.19 
		332.4,242.78 331.25,231.04 	"/>
	<g class="st9">
		<text transform="matrix(0.4158 0.9095 -0.9095 0.4158 360.06 171.3201)" class="st10 st11 st12">C</text>
	</g>
	<g class="st9">
		<text transform="matrix(0.9616 -0.2746 0.2746 0.9616 308.3798 338.2198)" class="st10 st11 st13">T</text>
	</g>
	<g class="st9">
		<text transform="matrix(0.9508 -0.3099 0.3099 0.9508 300.6701 345.4101)" class="st10 st11 st14">W</text>
	</g>
	<g class="st9">
		<text transform="matrix(0.9991 0.0433 -0.0433 0.9991 301.5801 299.92)" class="st10 st11 st15">TL</text>
	</g>
	<rect x="166.07" y="44.67" class="st16" width="514.66" height="514.66"/>
</g>
<text transform="matrix(1 0 0 1 133.77 466.5801)" class="st17 st18 st19">−2</text>
<text transform="matrix(1 0 0 1 147.79 310.6201)" class="st17 st18 st19">0</text>
<text transform="matrix(1 0 0 1 147.79 154.6699)" class="st17 st18 st19">2</text>
<line class="st20" x1="163.33" y1="457.96" x2="166.07" y2="457.96"/>
<line class="st20" x1="163.33" y1="302.01" x2="166.07" y2="302.01"/>
<line class="st20" x1="163.33" y1="146.05" x2="166.07" y2="146.05"/>
<line class="st20" x1="267.44" y1="562.07" x2="267.44" y2="559.33"/>
<line class="st20" x1="423.39" y1="562.07" x2="423.39" y2="559.33"/>
<line class="st20" x1="579.35" y1="562.07" x2="579.35" y2="559.33"/>
<text transform="matrix(1 0 0 1 253.7598 581.5)" class="st17 st18 st19">−2</text>
<text transform="matrix(1 0 0 1 416.7197 581.5)" class="st17 st18 st19">0</text>
<text transform="matrix(1 0 0 1 572.6797 581.5)" class="st17 st18 st19">2</text>
<text transform="matrix(1 0 0 1 277.9302 604)"><tspan x="0" y="0" class="st11 st19">PC1 (51.6% </tspan><tspan x="136.07" y="0" class="st11 st19">e</tspan><tspan x="148.69" y="0" class="st11 st19">xplained </tspan><tspan x="244.76" y="0" class="st11 st19">v</tspan><tspan x="256.19" y="0" class="st11 st19">a</tspan><tspan x="269.54" y="0" class="st11 st19 st21">r</tspan><tspan x="276.33" y="0" class="st11 st19">.)</tspan></text>
<text transform="matrix(-6.123234e-17 -1 1 -6.123234e-17 128.5097 447.4707)"><tspan x="0" y="0" class="st11 st19">PC2 (23.2% </tspan><tspan x="136.07" y="0" class="st11 st19">e</tspan><tspan x="148.69" y="0" class="st11 st19">xplained </tspan><tspan x="244.76" y="0" class="st11 st19">v</tspan><tspan x="256.19" y="0" class="st11 st19">a</tspan><tspan x="269.54" y="0" class="st11 st19 st21">r</tspan><tspan x="276.33" y="0" class="st11 st19">.)</tspan></text>
<rect x="384.05" y="5.48" class="st22" width="78.69" height="28.24"/>
<rect x="395.01" y="10.96" class="st23" width="17.28" height="17.28"/>
<rect x="395.01" y="10.96" class="st24" width="17.28" height="17.28"/>
<path class="st25" d="M401.7,19.6c0-1.08,0.88-1.96,1.95-1.96c1.08,0,1.96,0.88,1.96,1.96c0,1.07-0.88,1.95-1.96,1.95
	C402.58,21.55,401.7,20.67,401.7,19.6"/>
<path class="st26" d="M401.7,19.6c0-1.08,0.88-1.96,1.95-1.96c1.08,0,1.96,0.88,1.96,1.96c0,1.07-0.88,1.95-1.96,1.95
	C402.58,21.55,401.7,20.67,401.7,19.6"/>
<line class="st27" x1="396.74" y1="19.6" x2="410.56" y2="19.6"/>
<rect x="429.6" y="10.96" class="st23" width="17.28" height="17.28"/>
<rect x="429.6" y="10.96" class="st24" width="17.28" height="17.28"/>
<path class="st28" d="M436.29,19.6c0-1.08,0.88-1.96,1.95-1.96c1.08,0,1.96,0.88,1.96,1.96c0,1.07-0.88,1.95-1.96,1.95
	C437.17,21.55,436.29,20.67,436.29,19.6"/>
<path class="st29" d="M436.29,19.6c0-1.08,0.88-1.96,1.95-1.96c1.08,0,1.96,0.88,1.96,1.96c0,1.07-0.88,1.95-1.96,1.95
	C437.17,21.55,436.29,20.67,436.29,19.6"/>
<line class="st30" x1="431.33" y1="19.6" x2="445.16" y2="19.6"/>
<text transform="matrix(1 0 0 1 417.7695 22.8301)" class="st11 st31">H</text>
<text transform="matrix(1 0 0 1 452.3604 22.8301)" class="st11 st31">L</text>
</svg>
